<?xml version="1.0" encoding="UTF-8" standalone="no"?>
<!-- Created with Inkscape (http://www.inkscape.org/) -->

<svg
   width="210mm"
   height="297mm"
   viewBox="0 0 210 297"
   version="1.1"
   id="svg5"
   xml:space="preserve"
   inkscape:version="1.2 (dc2aedaf03, 2022-05-15)"
   sodipodi:docname="tan.svg"
   xmlns:inkscape="http://www.inkscape.org/namespaces/inkscape"
   xmlns:sodipodi="http://sodipodi.sourceforge.net/DTD/sodipodi-0.dtd"
   xmlns="http://www.w3.org/2000/svg"
   xmlns:svg="http://www.w3.org/2000/svg"><sodipodi:namedview
     id="namedview7"
     pagecolor="#ffffff"
     bordercolor="#000000"
     borderopacity="0.25"
     inkscape:showpageshadow="2"
     inkscape:pageopacity="0.0"
     inkscape:pagecheckerboard="0"
     inkscape:deskcolor="#d1d1d1"
     inkscape:document-units="mm"
     showgrid="false"
     inkscape:zoom="0.52724989"
     inkscape:cx="669.51176"
     inkscape:cy="536.74739"
     inkscape:window-width="1920"
     inkscape:window-height="1017"
     inkscape:window-x="-8"
     inkscape:window-y="-8"
     inkscape:window-maximized="1"
     inkscape:current-layer="layer1" /><defs
     id="defs2" /><g
     inkscape:label="Vrstva 1"
     inkscape:groupmode="layer"
     id="layer1"><path
       id="path183"
       style="fill:#000000;stroke-width:1.05466"
       d="m 104.65064,16.946907 c -4.5875,0.07114 -8.415734,0.997598 -8.7756,2.876294 -0.221689,1.157357 -1.268083,3.204638 -2.325205,4.548556 -1.057122,1.343695 -2.456906,4.194021 -3.110406,6.33256 -0.653489,2.138755 -1.709605,4.956733 -2.347257,6.261864 -0.85063,1.740533 -0.828796,3.004677 0.05094,4.74543 0.666171,1.304913 1.583338,4.718009 2.037877,7.582959 0.742815,4.681821 1.162448,5.297091 4.127463,6.065755 1.815759,0.47051 3.565674,1.542226 3.888004,2.382213 0.391578,1.020217 0.07856,1.332867 -0.942548,0.94103 -1.119686,-0.429666 -1.528601,0.237278 -1.528601,2.494712 0,4.624633 -6.045343,7.462366 -8.619752,4.046879 -2.669953,-3.539223 -4.325228,-10.720015 -3.029053,-13.141712 1.839982,-3.437382 -2.418086,-15.269212 -6.660144,-18.504359 -2.860103,-2.181292 -3.395423,-3.2081 -3.016894,-5.786791 0.655935,-4.468513 -7.288149,-8.572619 -12.763133,-6.593279 -1.925042,0.696183 -4.787426,1.265599 -6.359165,1.265599 -1.571973,0 -3.131489,0.711941 -3.46539,1.58181 -0.333885,0.870085 -1.219465,1.581806 -1.96718,1.581806 -12.827788,0 -9.193907,33.760053 3.72155,34.574053 2.595118,0.163613 5.344447,0.517 6.108311,0.785206 1.755841,0.616177 -6.809587,8.161627 -12.643823,11.138044 -15.322459,7.817092 -25.174412,20.753756 -18.803084,24.691665 0.580055,0.358257 1.055048,1.499981 1.055048,2.535735 0,5.532754 9.855484,7.818834 17.865094,4.144164 5.906897,-2.70979 7.417988,-6.152382 2.7007,-6.152382 -3.060989,0 -3.634456,-3.070555 -1.055048,-5.64995 0.869873,-0.870064 1.582578,-2.241988 1.582578,-3.048052 0,-0.806287 1.516815,-2.184068 3.369602,-3.061752 4.574187,-2.166141 9.638966,10.35487 6.696664,16.555336 -2.0453,4.3098 -2.044725,6.56403 0.0044,12.6005 1.546276,4.55444 1.52248,4.95645 -0.453794,7.46894 -1.148553,1.46022 -2.374553,3.93863 -2.722747,5.50631 -1.112533,5.00607 -12.359907,10.30504 -27.571076,12.9897 -8.079494,1.42598 -10.963205,3.22941 -10.963205,6.85704 0,3.10765 -3.823278,6.10567 -15.959474,12.52068 -3.18324868,1.68259 -2.52950024,12.14217 0.7585977,12.14217 0.7962428,0 2.3926168,1.85193 3.5474824,4.11604 2.1973205,4.30758 9.0101319,10.64855 11.4398009,10.64855 1.762694,0 10.38828,5.86242 11.512023,7.82465 1.575739,2.75136 8.817423,6.15642 13.366704,6.28541 4.520174,0.12808 4.520482,0.12772 1.546836,3.84089 -3.233616,4.03547 -5.268854,11.56545 -7.148164,26.43393 -1.541098,12.19652 -3.957399,20.05721 -6.355366,20.6844 -3.851082,1.00726 -5.354891,19.30325 -1.586362,19.30325 0.994316,0 1.533923,1.09153 1.533923,3.10433 0,2.01213 0.824259,3.68192 2.343441,4.74619 h 7.65e-4 c 3.838106,2.68639 14.530444,2.26972 14.530444,-0.5663 0,-1.32108 -0.847547,-2.42996 -2.109333,-2.76001 -6.465112,-1.69094 -1.722522,-29.35479 8.491306,-49.5294 14.514201,-28.66757 14.227727,-28.586 20.906279,-5.89701 9.356491,31.79605 7.227649,53.01153 -5.320045,53.01153 -3.005948,0 -7.203641,3.14125 -7.203641,5.38696 0,2.78119 37.638327,3.02664 38.702907,0.2525 0.57039,-1.48635 0.7291,-1.47994 1.58409,0.0457 0.77858,1.38901 2.93993,1.69808 11.97113,1.69808 12.15273,0 13.19952,-0.70901 6.92696,-4.66788 -11.47614,-7.24459 -14.39642,-15.5596 -12.71604,-36.20147 2.92731,-35.98567 8.54529,-47.76985 13.57271,-28.47487 1.24674,4.78551 2.66244,9.6503 3.14613,10.81045 2.09555,5.02607 34.8892,39.34831 37.04368,38.77294 0.51168,-0.13722 2.25632,1.49575 3.87281,3.62883 0.67674,0.89176 1.51411,1.92463 2.35942,2.93632 1.42944,1.2319 2.87812,2.44179 4.28859,3.69572 0.0953,0.0907 0.19311,0.17821 0.28961,0.26751 0.33765,0.20418 0.68178,0.49185 1.01627,0.89926 0.001,0.001 0.003,0.003 0.006,0.008 1.26974,1.0754 2.6107,2.05802 3.9587,3.03819 1.79603,1.28084 3.67683,2.44362 5.60665,3.51254 0.1084,0.0443 0.21532,0.0926 0.32079,0.14601 0.13781,0.0706 0.26758,0.15442 0.39373,0.24335 0.37879,0.18699 0.7529,0.38248 1.12802,0.57617 0.0667,0.022 0.13459,0.0446 0.20372,0.0614 0.19549,0.0329 0.39062,0.0644 0.58681,0.089 v 7.6e-4 c 0.0501,0.008 0.10045,0.0111 0.15051,0.0183 h 7.6e-4 c 0.031,-6.6e-4 0.0491,-0.001 0.0745,-0.003 0.0528,0.003 0.10586,0.008 0.15886,0.0111 -0.001,0.003 -0.003,0.003 -0.003,0.008 0.0671,0.003 0.13415,0.008 0.20141,0.008 0.004,0 0.009,7.7e-4 0.0131,7.4e-4 h 0.94255 c 0.10088,0 0.19044,0.0111 0.26908,0.0329 7.7e-4,-4e-5 0.001,0 0.003,0 h 7.7e-4 c 0.0264,0.008 0.0514,0.0147 0.0753,0.022 0.16424,-0.011 0.32891,-0.0256 0.49255,-0.0443 0.003,-1.9e-4 0.006,1.4e-4 0.009,0 0.0223,-0.003 0.0452,-0.003 0.0676,-0.008 0.0697,-0.008 0.13928,-0.0147 0.20902,-0.022 0.19751,-0.0183 0.39475,-0.0377 0.59138,-0.0662 0.01,-10e-4 0.0201,-10e-4 0.0304,-0.003 0.004,-7.6e-4 0.008,-0.003 0.0117,-0.003 0.22766,-0.0418 0.44903,-0.10983 0.67348,-0.16576 0.0161,-0.003 0.0318,-0.008 0.048,-0.0111 0.0329,-0.008 0.0644,-0.022 0.0972,-0.0329 0.004,-7e-5 0.009,-1.4e-4 0.0131,0 0.18872,-0.0541 0.37623,-0.11161 0.55792,-0.18699 l 7.6e-4,-7.3e-4 c 0.16922,-0.0714 0.33905,-0.13943 0.49942,-0.22945 l 7.5e-4,-7.7e-4 c 0.0706,-0.0374 0.14311,-0.0688 0.21586,-0.10022 0.11857,-0.0516 0.23779,-0.10133 0.35121,-0.16504 l 7.6e-4,-7.7e-4 c 0.14326,-0.0801 0.28873,-0.15553 0.43326,-0.23274 0.003,2.2e-4 0.006,4.8e-4 0.01,7.4e-4 0.0591,-0.0329 0.11784,-0.0641 0.17482,-0.0996 0.004,-0.003 0.009,-0.003 0.0131,-0.008 0.008,-0.008 0.0146,-0.0111 0.0212,-0.0146 0.0603,-0.0432 0.11915,-0.0875 0.17481,-0.13468 0.01,-0.008 0.0198,-0.0183 0.0296,-0.0256 0.0649,-0.0578 0.12534,-0.12003 0.17708,-0.19322 v -7.7e-4 c 0.18048,-0.25506 0.38548,-0.38738 0.56021,-0.41959 l 7.5e-4,-7.3e-4 c 0.003,-6.9e-4 0.008,-10e-4 0.01,-0.003 0.0754,-0.1182 0.14604,-0.2386 0.21056,-0.36338 l 0.001,7.6e-4 c 0.004,-0.008 0.009,-0.0147 0.0117,-0.022 0.03,-0.053 0.0599,-0.10718 0.089,-0.16174 l 7.6e-4,7.6e-4 c 0.009,-0.0182 0.0172,-0.0329 0.026,-0.0508 0.003,-0.008 0.006,-0.0111 0.009,-0.0183 0.0176,-0.0329 0.0348,-0.0695 0.0509,-0.10508 0.003,-0.008 0.006,-0.0111 0.009,-0.0183 0.0527,-0.11819 0.0956,-0.23969 0.11633,-0.36714 1e-5,-10e-4 -1e-5,-0.003 0,-0.003 0.001,-0.0765 -0.001,-0.15223 -0.008,-0.22798 -10e-5,-10e-4 1e-4,-0.003 0,-0.003 -0.0172,-0.23091 -0.0628,-0.4583 -0.1193,-0.68412 -0.0117,-0.0469 -0.0256,-0.094 -0.0387,-0.14053 -3.6e-4,-10e-4 -4.1e-4,-0.003 -7.7e-4,-0.003 -0.04,-0.14236 -0.0835,-0.2836 -0.13001,-0.42417 -3.3e-4,-9.8e-4 -4.3e-4,-10e-4 -7.5e-4,-0.003 -0.0625,-0.18883 -0.13017,-0.37557 -0.20219,-0.56099 -0.044,-0.10685 -0.0885,-0.21371 -0.13225,-0.32057 -4e-4,-9.8e-4 -3.7e-4,-0.001 -7.6e-4,-0.003 -0.13226,-0.32386 -0.26165,-0.64823 -0.38157,-0.97674 -0.0894,-0.24665 -0.16138,-0.49797 -0.22802,-0.75099 -10e-4,-0.008 -0.003,-0.0111 -0.004,-0.0183 -0.0193,-0.0747 -0.0387,-0.1493 -0.0578,-0.22432 -0.0215,-0.0699 -0.044,-0.13979 -0.067,-0.20895 -3.3e-4,-9.9e-4 -4.3e-4,-0.001 -7.8e-4,-0.003 -0.0344,-0.10465 -0.0716,-0.20859 -0.11251,-0.31105 -3.9e-4,-9.5e-4 -3.8e-4,-0.001 -7.8e-4,-0.003 -0.0412,-0.1032 -0.0864,-0.20456 -0.13916,-0.30337 -0.15077,-0.27519 -0.32569,-0.53921 -0.53816,-0.77074 -0.2252,-0.30008 -0.50972,-0.54653 -0.77989,-0.80496 -0.0767,-0.0684 -0.30732,-0.27117 -0.36866,-0.33595 -0.19282,-0.20382 -0.3251,-0.44381 -0.4842,-0.67194 -0.22004,-0.30117 -0.44439,-0.59699 -0.68031,-0.88627 -0.21101,-0.26237 -0.39577,-0.55099 -0.64839,-0.77532 -0.25773,-0.19944 -0.50261,-0.41362 -0.70537,-0.66813 -0.0296,-0.037 -0.0582,-0.075 -0.0859,-0.11418 -0.0117,-0.0146 -0.0226,-0.0329 -0.0333,-0.0472 -0.12724,-0.19176 -0.25542,-0.38183 -0.38308,-0.57315 -8.3e-4,-1.7e-4 -0.001,-5.4e-4 -0.003,-7.6e-4 -0.0509,-0.0765 -0.10243,-0.15223 -0.15278,-0.22872 -0.24043,-0.33959 -0.43312,-0.70876 -0.68488,-1.04136 -0.19445,-0.3363 -0.38081,-0.67761 -0.57769,-1.01248 -0.1137,-0.20859 -0.22278,-0.41959 -0.33674,-0.62785 -1.42017,-1.68601 -2.99306,-3.42365 -4.53258,-4.99932 -0.0937,-0.0633 -0.18909,-0.12479 -0.28657,-0.18334 -0.50075,-0.35203 -1.01903,-0.68174 -1.48072,-1.08618 -0.43678,-0.39998 -0.90934,-0.79256 -1.19946,-1.31805 -0.0789,-0.14272 -0.12871,-0.27703 -0.15659,-0.40137 -0.92899,-0.81184 -1.76432,-1.46559 -2.39436,-1.81818 -1.27209,-0.71191 -1.13014,-1.7802 0.89768,-6.77648 2.77584,-6.84238 2.62068,-7.21176 -5.13764,-12.19158 -2.76306,-1.77306 -5.60852,-4.50939 -6.32344,-6.07639 -0.71494,-1.56909 -2.22113,-3.49862 -3.34681,-4.28708 -1.12565,-0.78842 -3.04203,-3.41915 -4.2582,-5.84608 -1.21615,-2.42691 -3.3152,-5.59843 -4.66485,-7.04858 -1.84005,-1.97716 -3.17022,-3.78736 -3.9587,-5.30715 -0.0567,-0.0593 -0.11312,-0.11857 -0.16874,-0.17858 -0.30256,-0.36993 -0.60972,-0.73565 -0.88706,-1.12499 -0.29395,-0.43776 -0.52043,-0.91342 -0.72515,-1.39786 -0.15356,-0.30885 -0.33451,-0.60171 -0.50776,-0.89995 -0.23152,-0.42457 -0.39652,-0.87764 -0.54273,-1.33704 -0.14867,-0.41348 -0.30196,-0.82576 -0.44846,-1.24055 -0.13855,-0.35679 -0.19589,-0.74865 -0.38843,-1.08238 -0.24393,-0.42489 -0.40222,-0.88829 -0.58529,-1.34008 -0.17738,-0.38227 -0.29656,-0.78682 -0.44012,-1.182 -0.12606,-0.36081 -0.22135,-0.73049 -0.33977,-1.09383 -0.13046,-0.36594 -0.21356,-0.74708 -0.34358,-1.1128 -0.14297,-0.38288 -0.21577,-0.78344 -0.29342,-1.18276 -0.0727,-0.34947 -0.14839,-0.69942 -0.22575,-1.0482 -0.0555,-0.31581 -0.17207,-0.61559 -0.26299,-0.92203 -0.19871,-0.35021 -0.40029,-0.7736 -0.2767,-1.19034 0.0791,-0.26677 0.13961,-0.62429 0.39451,-0.73579 0.50429,-0.2203 1.09621,-0.10321 1.64413,-0.15516 0.13932,0.14198 0.2932,0.27079 0.41807,0.42566 0.1074,0.13321 0.1666,0.29495 0.21132,0.46219 0.0131,0.0146 0.0274,0.0293 0.041,0.0457 0.12811,0.13723 0.25542,0.27409 0.38385,0.41121 0.33239,0.35166 0.60237,0.75222 0.8711,1.15234 0.255,0.39903 0.49745,0.80713 0.73351,1.21772 0.21148,0.30007 0.40382,0.61569 0.57769,0.93948 0.13416,0.12662 0.31888,0.75808 0.39451,0.81488 0.0709,0.11783 0.12412,0.24702 0.1961,0.36411 0.0131,0.022 0.12164,0.11417 0.1399,0.13138 0.19911,0.20529 0.40171,0.4156 0.65371,0.55564 0.19911,0.11381 0.41755,0.16944 0.64154,0.20676 0.21572,0.0293 0.43545,0.0684 0.65143,0.022 0.0333,4.3e-4 0.41861,-0.17163 0.29418,-0.14528 -0.0996,0.0329 -0.10718,0.10354 0.0927,-0.14748 0.0519,-0.0652 0.10585,-0.17126 0.14666,-0.23347 0.12592,-0.22505 0.26197,-0.44472 0.38158,-0.67347 0.144,-0.2364 0.24309,-0.49366 0.34734,-0.74872 0.18964,-0.34509 0.37468,-0.69163 0.56022,-1.03905 0.17764,-0.42205 0.37443,-0.82327 0.6271,-1.20788 0.14253,-0.20163 0.28324,-0.404 0.41427,-0.61266 1.05357,-16.67316 -5.21852,-48.50217 -15.27233,-69.76606 -2.95115,-6.24052 -2.68549,-8.6923 1.74448,-16.20805 1.55881,-2.64329 3.42934,-6.611738 4.1571,-8.816606 1.51641,-4.593943 3.55466,-4.677193 12.66436,-0.515367 11.94051,5.456113 20.50222,11.396253 27.4464,19.045543 3.64539,4.01429 11.1638,5.46488 10.25174,1.97783 -0.52956,-2.02481 -0.2872,-2.27144 1.68441,-1.72927 10.47439,2.87683 12.27747,2.09086 12.30482,-5.36113 0.0194,-5.34275 -6.94149,-10.881858 -13.67303,-10.881858 -1.09371,0 -2.28025,-0.919837 -2.63686,-2.043201 -0.91794,-2.891702 -10.34945,-11.017187 -18.81981,-16.215565 -3.95853,-2.42863 -10.20221,-6.616501 -13.86991,-9.304622 -3.66983,-2.68812 -8.144,-5.757708 -9.94235,-6.819798 -1.79837,-1.062103 -3.5303,-2.753867 -3.84926,-3.758795 -0.31895,-1.004719 -1.50488,-2.120722 -2.63533,-2.47951 -1.13045,-0.358769 -2.05537,-1.039304 -2.05537,-1.512639 0,-1.537754 -5.68429,-2.012765 -10.60443,-0.885539 -3.96715,0.909182 -5.4061,0.789164 -8.27163,-0.692469 -4.15668,-2.150184 -3.44274,-2.78469 -7.90904,7.014387 -7.78322,17.081565 -7.91565,41.662829 -0.27365,51.680459 1.5331,2.01237 2.47731,3.97385 2.09337,4.35777 -1.40841,1.41035 -5.34555,0.63888 -7.20136,-1.41154 -2.01438,-2.2254 -6.28245,-2.83547 -7.38305,-1.05504 -4.995303,8.08143 -7.612164,-12.57699 -5.112562,-40.354685 0.745323,-8.282272 2.915112,-9.886784 8.728442,-6.453408 3.86935,2.286708 4.86735,1.503684 5.86054,-4.605574 0.71185,-4.378799 0.2234,-5.134759 -2.96296,-4.581246 -1.45042,0.251951 0.40274,-2.071901 4.86554,-6.099199 10.12393,-9.137997 13.44105,-25.867232 6.43594,-32.473082 -2.68136,-2.528936 -9.84484,-3.851038 -15.74589,-3.759552 z m 6.18205,2.393616 h 7.6e-4 c 0.39487,7.61e-4 0.77973,0.102022 1.1607,0.202183 0.39821,0.109999 0.7956,0.225603 1.19035,0.347388 0.34325,0.107591 0.69183,0.195157 1.03831,0.291107 0.40913,0.111649 0.81433,0.232739 1.19795,0.414266 0.41889,0.227395 0.78891,0.528416 1.15159,0.83461 0.36558,0.297182 0.69027,0.640055 0.99575,0.998799 0.2891,0.354159 0.54216,0.735452 0.81334,1.102934 0.2563,0.319249 0.51057,0.63828 0.75176,0.969154 0.22465,0.299999 0.42727,0.616053 0.62633,0.933427 0.19486,0.314307 0.3389,0.652185 0.48647,0.989675 0.15619,0.355257 0.24244,0.729647 0.29569,1.112057 0.0443,0.428745 0.0938,0.856909 0.12311,1.286882 0.0387,0.505886 -0.0238,1.011882 -0.114,1.508838 -0.13299,0.583491 -0.3199,1.152472 -0.45303,1.736114 -0.12105,0.435668 -0.22783,0.873941 -0.29037,1.321848 -0.0661,0.498402 -0.12578,0.997597 -0.19838,1.495154 -0.0301,0.162661 -0.0471,0.327225 -0.0745,0.490279 -4.5e-4,0.04834 -0.001,0.0969 -0.003,0.145168 -0.006,0.240754 -0.0117,0.481485 -0.0351,0.721356 -0.0237,0.215613 -0.0537,0.430728 -0.11253,0.640018 -0.0436,0.207783 -0.10033,0.412069 -0.15427,0.617221 -0.008,0.02781 -0.0132,0.0558 -0.0206,0.08361 -0.0578,0.381104 -0.12295,0.761094 -0.20675,1.13714 -0.10962,0.485831 -0.21701,0.970416 -0.35043,1.450308 -0.14063,0.52826 -0.29331,1.053715 -0.48041,1.567367 -0.17213,0.475171 -0.34776,0.949016 -0.53132,1.419902 -0.16603,0.467169 -0.38499,0.912209 -0.58758,1.363657 -0.16574,0.371468 -0.36962,0.722333 -0.58528,1.066447 -0.22611,0.379226 -0.46505,0.750887 -0.69856,1.124978 -0.23284,0.375348 -0.47827,0.741597 -0.74796,1.091532 -0.34004,0.487351 -0.70081,0.959712 -1.06035,1.432824 -0.35896,0.472804 -0.76217,0.908777 -1.14475,1.362135 -0.31387,0.379376 -0.65397,0.736459 -1.00259,1.083931 -0.28814,0.281299 -0.5972,0.541111 -0.90911,0.795847 -0.44224,0.342046 -0.90555,0.655223 -1.35073,0.993478 -0.35413,0.272589 -0.72393,0.524992 -1.06873,0.809525 -0.26264,0.199915 -0.49465,0.434173 -0.74492,0.648384 -0.2192,0.212466 -0.48021,0.371212 -0.73124,0.541206 -0.24617,0.157794 -0.51422,0.278665 -0.789,0.37702 -0.27724,0.112161 -0.57211,0.165917 -0.86807,0.204488 -0.34036,0.04395 -0.67961,0.05987 -1.02006,0.01428 -0.45988,-0.08226 -0.88177,-0.290557 -1.2983,-0.493318 -0.42197,-0.22242 -0.8168,-0.490861 -1.21923,-0.74568 -0.0568,-0.03038 -0.11311,-0.06123 -0.17027,-0.09046 -0.20841,-0.10653 -0.21005,-0.09046 -0.42568,-0.240205 -0.19639,-0.136386 -0.37635,-0.299559 -0.56705,-0.443909 -0.33348,-0.276872 -0.726895,-0.461827 -1.112816,-0.652182 -0.372109,-0.182971 -0.753566,-0.3464 -1.119641,-0.541206 -0.379579,-0.203172 -0.74361,-0.433158 -1.121189,-0.640022 C 96.882653,51.991292 96.441539,51.819825 96.0048,51.640108 95.618205,51.452782 95.229688,51.27006 94.842584,51.0837 94.503835,50.912732 94.180709,50.716979 93.87039,50.499167 c -0.334065,-0.212576 -0.619577,-0.485569 -0.89846,-0.763919 -0.103757,-0.10653 -0.189458,-0.226957 -0.278198,-0.345084 -0.242319,-0.212282 -0.432429,-0.449445 -0.564771,-0.783686 -0.08895,-0.204416 -0.169248,-0.412358 -0.235623,-0.624817 -3.09e-4,-9.91e-4 -4.42e-4,-0.0021 -7.51e-4,-0.0031 -0.04398,-0.118016 -0.08972,-0.235044 -0.129293,-0.354964 -0.09282,-0.344864 -0.186408,-0.688688 -0.278219,-1.033763 -0.09271,-0.38791 -0.203182,-0.771461 -0.300264,-1.158423 -0.135756,-0.445479 -0.218828,-0.903477 -0.302518,-1.360617 -0.124607,-0.496422 -0.227436,-0.996906 -0.304065,-1.502754 -0.05613,-0.366115 -0.08254,-0.735544 -0.09956,-1.105215 -0.04099,-0.393878 0.10011,-0.75216 0.289601,-1.087734 0.186563,-0.239471 0.392043,-0.462499 0.579224,-0.701588 0.126652,-0.161672 0.26106,-0.255097 0.387656,-0.299487 0.0905,-0.318112 0.221181,-0.621105 0.355733,-0.922784 0.162331,-0.320602 0.290529,-0.655639 0.413512,-0.992716 0.108839,-0.336045 0.151392,-0.686837 0.209027,-1.033765 0.0505,-0.3131 0.184684,-0.601993 0.269844,-0.9053 0.09867,-0.33491 0.182452,-0.673538 0.26907,-1.01172 0.09381,-0.389907 0.211558,-0.773678 0.345093,-1.151583 0.143999,-0.327774 0.264275,-0.6647 0.398296,-0.996518 0.130453,-0.283569 0.225016,-0.578708 0.329899,-0.871853 0.117392,-0.366425 0.237568,-0.731588 0.367137,-1.093815 0.160728,-0.414375 0.354087,-0.816117 0.55792,-1.21087 0.196364,-0.38063 0.411788,-0.751381 0.637754,-1.115098 0.189369,-0.28946 0.372783,-0.581756 0.537401,-0.886297 0.198076,-0.353353 0.418042,-0.693318 0.611887,-1.048966 0.157612,-0.251182 0.262706,-0.526528 0.3717,-0.800406 0.103867,-0.277787 0.221137,-0.550146 0.319247,-0.830052 0.108066,-0.352768 0.237424,-0.697068 0.377026,-1.038323 0.163756,-0.410441 0.37465,-0.799697 0.560196,-1.200231 0.200651,-0.396298 0.497236,-0.73221 0.78445,-1.067209 0.275557,-0.328689 0.579659,-0.629563 0.924309,-0.884777 0.30443,-0.222603 0.65261,-0.352476 1.01781,-0.431749 0.49484,-0.102541 0.95754,-0.07856 1.45183,0.01135 0.43236,0.07951 0.85791,0.193291 1.2884,0.281263 0.36963,0.07041 0.74534,0.09482 1.12041,0.114759 0.41981,0.03956 0.83249,-1.46e-4 1.24356,-0.08589 0.50093,-0.114576 0.99902,-0.242911 1.49363,-0.38234 0.46269,-0.116917 0.93021,-0.217259 1.39786,-0.313173 0.42054,-0.08296 0.84695,-0.127604 1.27397,-0.159623 0.0568,-0.0044 0.11384,-0.0062 0.17027,-0.0059 z m -45.984861,3.772474 c 0.793179,0.07044 1.701649,0.546732 3.227463,1.474633 3.423449,2.081497 4.744604,4.656604 1.812115,3.531519 -2.016939,-0.774812 -2.138729,2.349268 -0.139897,3.520875 5.27556,3.085462 9.427846,8.201448 10.760961,13.25421 1.637993,6.208473 1.699209,6.057032 -2.921131,7.002223 -4.458627,0.911891 -4.741565,3.789959 -0.372448,3.789959 2.739386,0 3.241137,0.502079 4.218643,4.218664 2.341225,8.901753 6.44747,12.299517 10.966217,9.078117 2.799446,-1.99493 2.799026,-1.994411 2.428575,3.238107 -0.228784,3.231488 -0.934438,5.450307 -1.845561,5.79972 -1.669186,0.640527 -1.993704,3.145698 -0.476606,3.67974 1.163586,0.409379 1.701131,23.746846 0.608108,26.403426 -0.44907,1.09145 0.303258,3.77867 1.920047,6.85553 1.719948,3.27342 2.799269,7.29456 3.057975,11.38813 0.33012,5.22327 1.727097,9.08925 7.9957,22.1476 6.03588,12.56961 8.06328,16.79799 9.14348,18.23301 0.0819,0.28023 0.20251,0.54741 0.35954,0.79736 0.003,0.006 0.26384,0.37206 0.27061,0.38157 0.21191,0.25295 0.47746,0.4499 0.69778,0.69475 0.10983,0.1462 0.15731,0.32647 0.23944,0.488 0.0751,0.14766 0.16211,0.28895 0.24701,0.43099 0.0879,0.12973 0.15453,0.28192 0.26454,0.39602 7.3e-4,7.3e-4 0.003,0.001 0.004,0.001 0.0132,0.0307 0.0267,0.0634 0.0403,0.095 0.0598,0.18506 0.0997,0.36415 0.17786,0.56325 0.004,0.0117 0.0285,0.015 0.0662,0.0117 0.65,1.37501 1.7813,3.41518 3.43954,6.25199 2.31802,3.97051 4.21866,7.34622 4.21866,7.50163 0,0.15553 1.66206,3.04277 3.69342,6.41617 4.01269,6.6652 0.48032,10.25241 -9.0097,9.14424 -7.63796,-0.89167 -10.68343,7.61876 -12.74797,35.60172 -2.00099,27.12413 0.45771,35.82506 11.76971,41.67585 1.72161,0.89031 3.13092,1.8441 3.13092,2.11921 0,0.27519 -2.72889,0.4859 -6.06423,0.46826 -6.26769,-0.0329 -9.05731,-1.0493 -11.98861,-4.36612 -1.98333,-2.24418 -3.71558,-2.48413 -4.404901,-0.61113 -0.266839,0.72507 -0.834549,0.003 -1.261796,-1.60312 -0.462638,-1.73943 -0.240717,-4.2139 0.548053,-6.11822 1.662494,-4.01362 0.806206,-20.34593 -1.650236,-31.56473 -2.234487,-10.19368 -1.635639,-23.76387 1.391033,-31.63996 2.298787,-5.97928 -1.538137,-8.79268 -13.756633,-10.08679 -3.617323,-0.38341 -7.571669,-1.31392 -8.77706,-2.0683 -5.420377,-3.386 -30.081889,39.07414 -33.707463,58.03286 -2.064586,10.79427 -1.172042,27.58834 1.504267,28.30306 0.937657,0.2503 0.226445,0.51049 -1.580284,0.57771 -5.063295,0.18846 -8.843241,-3.35979 -8.843241,-8.30356 0,-2.22756 -0.406854,-4.21228 -0.903777,-4.40565 -2.970952,-1.15622 -2.277547,-8.17404 1.147791,-11.61993 3.677596,-3.69993 4.445137,-6.62578 8.728448,-33.26361 1.368561,-8.51251 2.09174,-10.42247 5.782989,-15.2921 5.15736,-6.80118 5.39415,-13.16477 0.300256,-8.07019 -2.495981,2.49419 -11.02793,0.0111 -15.269304,-4.44671 -2.148764,-2.25933 -7.133175,-5.84954 -11.074934,-7.97823 -8.968813,-4.84365 -10.666433,-6.29636 -12.5138549,-10.71844 -0.8142283,-1.94924 -2.3777594,-3.77851 -3.4737556,-4.06513 -1.8349166,-0.47991 -5.28840714,-5.24376 -4.2771918,-5.90005 0.2425823,-0.15739 3.0514725,-2.00367 6.2413421,-4.10313 3.1898872,-2.09948 7.1996922,-4.52552 8.9086082,-5.39077 2.153913,-1.09051 3.45827,-2.82509 4.251346,-5.65377 1.046839,-3.73219 1.546277,-4.1564 5.857491,-4.97574 19.343265,-3.6755 30.634563,-8.99377 32.806777,-15.45172 3.073518,-9.13693 9.315109,-15.05642 14.980391,-14.21045 13.061909,1.95033 19.966471,-11.80277 7.187648,-14.31686 -5.694085,-1.120014 -6.125383,-1.404784 -5.678063,-3.744329 0.638116,-3.337642 -3.514748,-3.503282 -7.584431,-0.30253 -1.558911,1.226044 -2.937972,2.056708 -3.064032,1.845561 -1.165983,-1.951711 -4.932411,-10.67202 -4.932411,-11.416927 0,-6.688283 -5.128029,-7.226325 -12.591383,-1.320331 -2.700158,2.136618 -4.711628,2.886482 -7.155022,2.668015 -4.912863,-0.439047 -8.729964,1.286551 -8.729964,3.946526 0,2.821205 -2.520056,2.141298 -2.955347,-0.797374 -0.416344,-2.809255 6.947192,-9.31242 18.3242,-16.184434 4.732926,-2.858771 9.184771,-5.895807 9.89145,-6.747583 0.706908,-0.851543 3.381249,-2.77654 5.941847,-4.277196 7.202688,-4.220399 6.232353,-5.662828 -4.044596,-6.024709 C 46.039841,57.624174 37.52282,35.959749 48.285422,29.308248 c 0.943333,-0.583183 0.964309,-0.243204 0.08739,1.396343 -1.593125,2.976753 -1.464936,7.579153 0.210563,7.579153 1.075434,0 3.425996,-4.433534 4.474058,-8.43733 0.737505,-2.816824 2.174362,-4.218664 4.324333,-4.218664 1.408277,0 3.627294,-0.698364 4.930135,-1.552164 1.064785,-0.697603 1.743571,-1.033508 2.536517,-0.963072 z m 36.058461,18.460274 c -0.0226,0.01094 -0.0463,0.02708 -0.0701,0.04636 l -7.5e-4,7.58e-4 c 0.0168,0.0059 0.0285,0.0095 0.0432,0.01428 10e-4,6.95e-4 0.004,0.0014 0.006,0.0023 v -7.62e-4 c -0.009,-0.0087 -0.008,-0.02086 0.003,-0.03513 0.003,-0.0051 0.0117,-0.01171 0.0198,-0.0183 -1.1e-4,-6.8e-4 1.7e-4,-0.0017 0,-0.0023 -1.3e-4,-8.28e-4 -6.1e-4,-0.0022 -7.6e-4,-0.0031 -2.3e-4,-0.0014 -6.1e-4,-0.0032 -7.5e-4,-0.0044 z m 37.07864,15.835576 h 7.6e-4 7.5e-4 c 1.16112,0.0081 1.72946,0.404694 2.22031,1.281561 0.53602,0.95759 1.66259,1.741434 2.50384,1.741434 0.84126,0 1.53012,0.66649 1.53012,1.479957 0,0.813684 2.58934,3.198587 5.75412,5.298798 3.16476,2.100433 6.02701,4.26102 6.36068,4.800918 0.33367,0.539677 5.77743,4.097131 12.09731,7.904484 12.63579,7.613443 22.19246,15.985945 22.19246,19.443017 0,1.840964 0.65155,2.207114 3.9549,2.221834 4.94551,0.0216 12.28435,4.04006 12.70692,6.95889 0.49829,3.44195 -2.26585,5.07009 -6.25047,3.68125 -4.59553,-1.60255 -8.15871,-1.45959 -10.02141,0.40287 -1.38848,1.38826 -1.83418,1.28572 -3.87966,-0.89085 -3.64778,-3.88175 -15.15149,-13.333258 -16.22931,-13.333258 -0.53693,0 -1.89625,-0.830677 -3.02073,-1.845561 -7.61431,-6.874531 -23.6503,-8.670372 -25.33935,-2.837525 -1.41741,4.902563 -5.22795,12.698764 -6.62597,13.562794 -2.24768,1.38893 -2.43848,10.03554 -0.28807,13.05508 5.79981,8.14687 13.84246,36.88231 15.01693,53.66219 1.32537,18.93599 1.08112,22.53416 -1.20403,17.73965 -1.49871,-3.14593 -3.94711,-5.70287 -5.52151,-5.76702 -3.96584,-0.16138 0.9178,18.33607 6.69286,25.36139 2.184,2.65582 4.66629,6.49097 5.51543,8.52323 0.84914,2.0323 2.69392,4.60812 4.10008,5.71839 1.40617,1.11251 3.47962,3.59077 4.60785,5.50783 1.12601,1.91706 4.27248,4.91064 6.98702,6.65257 5.35557,3.43667 5.45459,4.46705 1.19796,12.51232 -1.29289,2.44361 -1.1701,2.86398 1.50425,5.11031 2.32314,1.95322 5.56933,4.99606 8.22908,7.63234 0.0962,0.048 0.19659,0.11381 0.29949,0.19907 0.36722,0.30484 0.70467,0.646 1.02236,1.00184 0.11195,0.13906 0.21313,0.28618 0.3071,0.43862 0.11604,0.1881 0.22099,0.38399 0.31775,0.58149 0.0362,0.0508 0.0642,0.11051 0.0912,0.17271 0.0117,0.0256 0.0234,0.0545 0.0351,0.082 l 7.6e-4,7.7e-4 c 0.048,0.11271 0.0999,0.22433 0.18927,0.29787 0.0326,0.0418 0.0658,0.0823 0.10111,0.12076 l 0.16266,0.1215 -0.076,-0.0329 c 0.0856,0.0849 0.17561,0.16504 0.2668,0.24481 0.24501,0.16394 0.46958,0.35021 0.6689,0.56784 0.001,0.001 0.003,0.003 0.004,0.003 0.0242,0.022 0.0481,0.0475 0.0707,0.072 4.9e-4,5e-4 0.001,9.9e-4 0.001,10e-4 9.6e-4,0.001 0.001,0.001 0.003,0.003 0.003,0.003 0.004,0.008 0.008,0.008 0.045,0.0502 0.0872,0.10177 0.12621,0.15589 v 7.7e-4 c 0.009,0.011 0.0161,0.0256 0.0242,0.0366 0.0117,0.0183 0.0231,0.0329 0.0344,0.0508 0.0212,0.022 0.0425,0.0443 0.0631,0.067 4.9e-4,5.5e-4 0.001,10e-4 0.001,10e-4 0.0201,0.022 0.0404,0.0443 0.06,0.067 0.006,0.008 0.0117,0.0146 0.0183,0.022 0.0337,0.0391 0.0663,0.0783 0.0988,0.11856 l 7.8e-4,7.7e-4 c 0.0382,0.0472 0.076,0.0951 0.11326,0.14382 0.0372,0.0486 0.0734,0.0977 0.11016,0.14674 0.0131,0.0183 0.026,0.0366 0.0387,0.0534 0.0651,0.0907 0.1303,0.18077 0.19533,0.27153 v 7.7e-4 c 0.0245,0.0183 0.0505,0.0366 0.0745,0.0527 0.0242,0.0183 0.0479,0.0366 0.0715,0.053 l 7.5e-4,7.7e-4 c 0.0597,0.0461 0.11724,0.0937 0.17254,0.14455 7.9e-4,7.4e-4 0.001,0.001 0.003,0.003 l 7.6e-4,7.7e-4 c 7.9e-4,7.3e-4 0.001,10e-4 0.003,0.003 0.0724,0.067 0.14064,0.13906 0.20373,0.21664 0.001,0.003 0.004,0.003 0.006,0.008 0.001,10e-4 0.003,0.003 0.004,0.008 0.15728,0.20455 0.26283,0.43884 0.37247,0.67044 0.01,0.022 0.0201,0.0424 0.0304,0.0636 0.004,0.0111 0.01,0.022 0.015,0.0329 0.01,0.022 0.0195,0.0432 0.0296,0.0644 0.0643,0.13137 0.14239,0.25506 0.22652,0.37473 0.01,0.0146 0.0226,0.0293 0.0333,0.0457 0.008,0.0111 0.015,0.022 0.0226,0.0329 0.004,0.008 0.01,0.0147 0.0146,0.0183 0.0179,0.0256 0.0351,0.0491 0.0533,0.0728 0.0198,0.0256 0.0394,0.0534 0.0593,0.0798 0.008,0.0111 0.015,0.022 0.0226,0.0329 0.19761,0.28031 0.38797,0.56581 0.57693,0.85209 0.0117,0.0182 0.0238,0.0366 0.0358,0.0538 0.0161,0.0256 0.0337,0.0497 0.0509,0.0736 0.0871,0.12038 0.18981,0.22834 0.29341,0.3352 v 7.6e-4 c 0.0414,0.0428 0.0824,0.0853 0.12311,0.12845 0.001,0.001 0.003,0.003 0.004,0.008 0.17957,0.19102 0.30674,0.41992 0.43858,0.64457 0.0179,0.0293 0.0355,0.0614 0.0539,0.0918 0.0369,0.0625 0.0734,0.12589 0.10951,0.1892 0.096,0.16907 0.1915,0.33813 0.29491,0.50244 0.001,10e-4 0.003,0.003 0.004,0.008 0.0117,0.0183 0.0223,0.0366 0.0344,0.0549 9.9e-4,10e-4 0.001,0.003 0.003,0.003 0.0969,0.1515 0.16779,0.31399 0.22272,0.48345 v 7.7e-4 c 3.2e-4,9.8e-4 4.3e-4,0.001 7.6e-4,0.003 0.053,0.16431 0.0916,0.33447 0.1246,0.50397 0.001,0.008 0.001,0.0111 0.003,0.0183 0.015,0.0703 0.0307,0.14052 0.0471,0.21042 0.0326,0.14016 0.0683,0.27958 0.10718,0.41805 0.0193,0.0692 0.0396,0.13796 0.0608,0.20676 8.9e-4,0.003 10e-4,0.008 0.003,0.008 0.0898,0.27666 0.15162,0.56038 0.19004,0.8483 3.9e-4,0.003 0.001,0.008 0.001,0.008 5.4e-4,0.003 10e-4,0.008 10e-4,0.0111 0.0179,0.14052 0.03,0.28141 0.0234,0.42109 -1e-4,0.003 -6.3e-4,0.003 -7.5e-4,0.008 -0.008,0.14381 -0.0329,0.28653 -0.0928,0.42413 -0.003,0.003 -0.006,0.008 -0.009,0.0146 -8e-5,4.8e-4 8e-5,10e-4 0,10e-4 -0.01,0.0603 -0.0409,0.11418 -0.0866,0.15736 -0.003,0.008 -0.008,0.0146 -0.01,0.0182 -0.10409,0.16394 -0.23757,0.2924 -0.38766,0.39983 -0.15011,0.10763 -0.31801,0.19505 -0.48801,0.27665 -0.19384,0.0879 -0.39559,0.14967 -0.60125,0.19542 -0.20566,0.0457 -0.41668,0.0758 -0.62633,0.10022 -0.24097,0.022 -0.48197,0.0366 -0.72365,0.0465 -0.0198,7.7e-4 -0.0395,0.001 -0.0593,0.003 -0.24602,0.008 -0.49278,0.011 -0.73883,0 h -7.6e-4 -7.6e-4 c -0.56067,-0.0146 -1.09117,-0.17637 -1.60081,-0.39906 -0.56501,-0.28762 -1.09771,-0.63278 -1.63806,-0.96308 -0.2222,-0.14271 -0.44103,-0.29056 -0.6575,-0.44162 -0.3082,-0.0901 -0.61132,-0.19834 -0.90606,-0.32312 -0.53371,-0.2913 -1.03514,-0.63528 -1.50885,-1.01703 -0.189,-0.15186 -0.29381,-0.22799 -0.46595,-0.39906 -0.2375,-0.23604 -0.43599,-0.50873 -0.66055,-0.75634 -0.099,-0.1138 -0.19743,-0.22761 -0.29568,-0.34215 -0.2723,-0.20968 -0.52174,-0.44539 -0.76012,-0.69323 -0.17898,-0.19578 -0.34673,-0.40108 -0.50928,-0.6104 -0.19291,-0.1676 -0.39177,-0.32825 -0.60581,-0.47049 -0.39575,-0.29605 -0.79632,-0.58547 -1.18199,-0.89465 -0.38745,-0.3235 -0.77325,-0.6485 -1.14474,-0.99046 -0.31346,-0.25104 -0.66208,-0.45223 -0.9874,-0.6856 -0.3687,-0.2664 -0.74946,-0.51356 -1.12345,-0.77228 -0.40369,-0.27593 -0.79854,-0.56556 -1.16603,-0.88857 -0.14282,-0.12919 -0.20693,-0.18115 -0.3352,-0.32314 -0.14384,-0.15955 -0.2514,-0.34618 -0.41655,-0.48721 -0.19486,-0.21664 -0.3983,-0.4249 -0.59062,-0.6438 -0.20554,-0.23713 -0.42755,-0.46051 -0.54272,-0.76091 -0.13474,-0.26055 -0.26436,-0.52395 -0.43935,-0.76087 -0.15414,-0.25725 -0.31274,-0.51366 -0.48571,-0.75863 -0.15513,-0.22323 -0.331,-0.41834 -0.53664,-0.5982 -0.254,-0.26568 -0.49964,-0.54003 -0.74948,-0.80951 -0.23688,-0.2792 -0.50167,-0.54013 -0.67422,-0.86808 -0.17562,-0.26896 -0.35183,-0.53863 -0.55566,-0.78824 -0.25371,-0.32386 -0.51668,-0.64149 -0.81561,-0.92507 -0.0617,-0.0655 -0.12534,-0.12917 -0.1885,-0.19322 -0.43936,-0.27774 -0.83647,-0.44315 -1.125,-0.44315 -8.40526,0 -45.22167,-49.58422 -40.39732,-54.40859 0.14489,-0.1449 2.63633,-1.19249 5.53367,-2.32749 3.40361,-1.33277 5.37271,-2.76308 5.55953,-4.03927 0.29023,-1.9886 -2.19049,-7.21898 -3.9207,-8.85162 -0.10464,-0.27483 -0.24027,-0.54013 -0.43251,-0.76391 -0.0697,-0.0812 -0.13269,-0.16944 -0.2136,-0.23933 -0.067,-0.0578 -0.15063,-0.0926 -0.22575,-0.13906 -0.17316,0.001 -0.30714,4.8e-4 -0.42262,0 -0.01,-0.0183 -0.0223,-0.0329 -0.0333,-0.0508 0.10884,-0.008 0.20409,-0.008 0.22272,-0.008 0.11193,0.008 0.17623,0.14163 0.0326,-0.0578 -0.0807,-0.11052 -0.13932,-0.23201 -0.19458,-0.35497 0.0282,-0.96491 -1.80606,-4.3767 -6.29379,-12.08131 -3.54404,-6.08778 -8.27823,-15.02263 -10.5155,-19.85055 -1.85149,-3.99509 -3.72677,-7.15403 -4.64661,-7.94173 -0.0377,-0.0467 -0.0773,-0.0922 -0.11931,-0.13605 -0.0289,-0.11886 -0.0693,-0.23391 -0.12309,-0.34358 -0.0154,-0.12311 -0.0234,-0.24797 -0.0547,-0.3679 -0.0456,-0.17492 -0.17821,-0.38073 -0.32685,-0.56933 -0.0954,-0.89786 -1.03438,-3.22438 -2.76988,-6.71035 -5.27356,-10.59521 -3.02239,-28.44093 2.554,-20.23516 1.79821,2.64604 5.40791,3.056 10.68957,1.21468 4.19409,-1.46228 4.16002,-2.34797 -0.31167,-7.80416 -8.85723,-10.81023 -5.65581,-58.967581 3.63338,-54.633522 2.04392,0.953459 7.87074,0.858903 13.05125,-0.212063 1.23518,-0.255391 2.14541,-0.390208 2.84209,-0.38538 z m -33.52433,2.733392 c 0.37708,-0.0051 0.75052,0.05822 1.11814,0.143669 0.34347,0.07231 0.65944,0.248877 1.00792,0.298718 0.33381,0.04131 0.67035,0.03916 1.00564,0.05928 0.45231,0.04087 0.81463,0.158856 1.1949,0.403624 0.0821,0.05273 0.14638,0.102176 0.19688,0.148975 0.28891,0.118236 0.5591,0.275628 0.78597,0.502439 0.0692,0.06913 0.12681,0.148864 0.19004,0.22348 0.36316,0.540951 0.35932,1.150156 0.29415,1.771082 -0.0621,0.425701 -0.1559,0.847146 -0.24933,1.267122 -0.0991,0.461777 -0.22103,0.8254 -0.47888,1.226835 -0.31076,0.407733 -0.73751,0.644107 -1.21542,0.801167 -0.41946,0.124387 -0.85426,0.15421 -1.28917,0.152784 -0.48536,-0.02232 -0.93829,-0.200982 -1.36671,-0.417313 -0.28151,-0.14432 -0.5352,-0.336374 -0.80952,-0.491036 -0.25224,-0.11853 -0.52178,-0.198994 -0.78823,-0.278949 -0.42648,-0.08464 -0.84144,-0.203834 -1.25649,-0.332176 -0.36075,-0.135535 -0.73558,-0.215976 -1.11509,-0.275921 -0.32577,-0.03801 -0.64962,0.01359 -0.97219,0.05403 -0.27428,0.05657 -0.56476,0.07768 -0.823967,0.190043 -0.343623,0.194055 -0.657909,0.429534 -0.967631,0.672704 -0.316507,0.218983 -0.640096,0.473755 -1.017056,0.582252 -0.103425,0.02961 -0.210132,0.0442 -0.315446,0.06608 -0.487965,0.04464 -0.948537,-0.114607 -1.283088,-0.477357 -0.05779,-0.06276 -0.100994,-0.137447 -0.152011,-0.205988 -0.215568,-0.355877 -0.270319,-0.763985 -0.307092,-1.169829 -0.03436,-0.450937 0.07867,-0.882526 0.250087,-1.294483 0.135613,-0.3303 0.329711,-0.630291 0.498639,-0.943307 0.128695,-0.266296 0.257943,-0.532358 0.393733,-0.795089 0.180154,-0.355843 0.458152,-0.641251 0.744151,-0.912901 0.245181,-0.203757 0.507368,-0.385019 0.778372,-0.551848 0.450838,-0.234606 0.887632,-0.321699 1.383419,-0.327628 0.03293,-3.95e-4 0.06608,-3e-4 0.09956,0 0.47269,0.0059 0.92869,0.121127 1.38114,0.245511 0.15823,0.03367 0.31277,0.08087 0.46822,0.124639 h 7.6e-4 c 0.12018,-0.02745 0.25129,-0.04666 0.39374,-0.05548 0.21923,-0.01354 0.42882,-0.07615 0.63699,-0.142131 0.42973,-0.135545 0.87689,-0.198817 1.32337,-0.247817 0.0874,-0.0092 0.17448,-0.01391 0.2615,-0.01537 z m -1.50123,2.250711 a 0.87653479,0.87653479 0 0 0 -0.87719,0.876421 0.87653479,0.87653479 0 0 0 0.87719,0.876422 0.87653479,0.87653479 0 0 0 0.87642,-0.876422 0.87653479,0.87653479 0 0 0 -0.87642,-0.876421 z M 44.125438,89.91382 c 0.156476,-0.003 0.313246,5.9e-4 0.469756,0.006 0.282251,0.0195 0.567774,0.0782 0.803443,0.244007 0.04838,0.034 0.09134,0.0755 0.13679,0.11326 0.206793,0.212397 0.330299,0.503107 0.291876,0.803434 -0.0087,0.0649 -0.02379,0.12885 -0.03587,0.19307 -0.04959,0.17196 -0.09781,0.344207 -0.147475,0.516147 -0.07194,0.24331 -0.14151,0.487017 -0.218138,0.728927 -0.06766,0.255947 -0.204159,0.484327 -0.309368,0.725164 -0.09061,0.24225 -0.174517,0.487777 -0.231055,0.740337 -0.06045,0.282327 -0.09281,0.569177 -0.114723,0.856664 -0.0073,0.2309 0.04311,0.458487 0.08589,0.684107 0.05192,0.2166 0.121199,0.430217 0.19384,0.640777 0.05708,0.169207 0.09928,0.348697 0.201451,0.497867 0.118565,0.222707 0.281445,0.414077 0.439349,0.608857 0.145463,0.174737 0.290998,0.349147 0.434026,0.525997 0.133423,0.191797 0.279433,0.374027 0.427951,0.554127 0.123396,0.173087 0.283898,0.307167 0.44238,0.446187 0.144144,0.10574 0.305122,0.186147 0.467472,0.259957 0.180958,0.0498 0.351378,0.12534 0.520691,0.20449 7.8e-4,1.6e-4 9.26e-4,6.1e-4 0.0014,7.7e-4 0.09825,0.0209 0.197023,0.0386 0.297217,0.0494 0.269627,0.0285 0.543432,0.0426 0.792799,0.161887 0.05618,0.0315 0.115162,0.0576 0.168005,0.0943 0.353353,0.24559 0.458045,0.613457 0.371686,1.020087 -0.104883,0.3083 -0.26399,0.58603 -0.521441,0.79356 -0.252829,0.19622 -0.512868,0.37994 -0.83232,0.44998 -0.294876,0.0845 -0.595019,0.15809 -0.901514,0.1832 -0.172871,0.009 -0.347168,0.009 -0.519911,-0.006 -0.238851,0.0863 -0.485891,0.14283 -0.734285,0.1938 -0.232374,0.0459 -0.463974,0.0984 -0.693984,0.15505 -0.20789,0.091 -0.426007,0.15744 -0.640775,0.23033 -0.224322,0.0783 -0.449351,0.15209 -0.68108,0.20521 -0.253488,0.0359 -0.498951,0.10851 -0.749464,0.15963 -0.368039,0.0767 -0.744612,0.10652 -1.118901,0.13532 -0.349547,0.0194 -0.695025,0.077 -1.042883,0.11473 -0.342998,0.0486 -0.688143,0.0777 -1.033764,0.0988 -0.348048,0.0209 -0.6966,0.0263 -1.045163,0.0304 -0.460798,0.004 -0.921827,0.004 -1.382668,0.006 -0.500144,-0.0146 -0.998316,-0.0577 -1.493633,-0.12695 -0.493231,-0.0569 -0.956982,-0.22711 -1.407746,-0.42718 -0.419138,-0.19268 -0.818051,-0.4241 -1.209347,-0.66739 -0.305268,-0.18645 -0.601121,-0.38015 -0.86502,-0.62254 -0.236472,-0.21458 -0.462104,-0.44057 -0.675742,-0.67802 -0.205769,-0.24394 -0.406253,-0.4929 -0.582249,-0.75937 -0.18685,-0.276027 -0.271164,-0.596464 -0.369423,-0.909854 -0.118127,-0.343177 -0.174957,-0.698837 -0.198377,-1.059604 -0.01171,-0.316837 -0.0183,-0.640337 0.08135,-0.945574 0.02415,-0.0734 0.05928,-0.14312 0.08899,-0.21437 0.200938,-0.408457 0.549699,-0.709024 0.876419,-1.014764 0.254147,-0.243007 0.535579,-0.454077 0.812568,-0.669657 0.295096,-0.213777 0.573877,-0.447577 0.839938,-0.696274 0.202001,-0.19632 0.379779,-0.415077 0.549565,-0.639247 0.150841,-0.24138 0.318113,-0.468767 0.506999,-0.681817 0.185715,-0.209497 0.396252,-0.395707 0.598973,-0.588337 0.171004,-0.162147 0.36726,-0.293447 0.555642,-0.434017 0.146341,-0.12534 0.295755,-0.245217 0.456075,-0.352697 0.164271,-0.091 0.315734,-0.20017 0.471281,-0.30479 0.15816,-0.110917 0.06941,-0.0505 0.266808,-0.179377 0.203977,-0.13343 0.394958,-0.20233 0.563244,-0.22195 0.224103,-0.0878 0.457252,-0.152047 0.691718,-0.206757 0.296157,-0.0571 0.592339,-0.11652 0.888584,-0.17331 0.290338,-0.0466 0.57679,-0.1105 0.866532,-0.16035 0.05987,-0.0274 0.123104,-0.0432 0.187765,-0.0456 0.02488,-9.5e-4 0.05002,-6.5e-4 0.07532,0.003 0.209062,-0.034 0.414915,-0.0811 0.620257,-0.136057 0.322761,-0.1074 0.65187,-0.18846 0.985105,-0.25539 0.296888,-0.0584 0.599196,-0.0794 0.896952,-0.13149 0.284374,-0.0541 0.57203,-0.0836 0.860447,-0.105637 0.15633,-0.0117 0.312515,-0.0176 0.469003,-0.0198 z m -11.848745,7.547175 c -0.0014,0.003 -0.003,0.006 -0.0044,0.009 0.0014,-0.003 0.003,-0.006 0.0059,-0.009 z m -0.0044,0.009 c -0.0073,0.0132 -0.015,0.0274 -0.02342,0.0403 -0.0044,0.006 -0.01317,0.009 -0.01501,0.0161 -0.003,0.009 1.91e-4,0.0187 -0.003,0.0274 0.01317,-0.0282 0.02745,-0.056 0.04176,-0.0835 z m 40.560717,0.20749 c 0.318584,10e-4 0.56363,0.18729 0.772281,0.414267 0.144286,0.17434 0.246164,0.379087 0.346614,0.580727 0.06961,0.13134 0.133712,0.26506 0.215866,0.389177 0.124895,0.17726 0.274938,0.33118 0.433254,0.478107 0.22264,0.2184 0.452271,0.42855 0.700071,0.617977 0.198928,0.13796 0.391133,0.28858 0.607342,0.39908 0.232452,0.12548 0.463796,0.25137 0.704624,0.36027 0.237675,0.0926 0.479475,0.17331 0.72364,0.24704 0.29026,0.0892 0.582833,0.1705 0.874133,0.25617 0.30117,0.0692 0.605541,0.1246 0.907561,0.19003 0.306736,0.0626 0.609162,0.14297 0.915194,0.20902 0.428072,0.094 0.847507,0.2225 1.270142,0.33747 0.425807,0.114 0.848156,0.23728 1.259513,0.39603 0.278006,0.12447 0.563983,0.22272 0.855139,0.31015 0.307788,0.0856 0.590723,0.23668 0.869572,0.38917 0.306106,0.17426 0.585276,0.38976 0.866531,0.6005 0.274121,0.19754 0.526227,0.41882 0.764679,0.6575 0.220264,0.21741 0.412359,0.45703 0.573872,0.72059 0.15579,0.27651 0.223524,0.5865 0.270615,0.89694 0.05381,0.33188 -0.03006,0.6458 -0.131477,0.95851 -0.09326,0.32335 -0.272629,0.60029 -0.470517,0.86807 -0.210162,0.25817 -0.417155,0.51923 -0.631659,0.77378 -0.202033,0.24885 -0.42633,0.47624 -0.665851,0.68869 -0.208441,0.18886 -0.401644,0.39386 -0.599728,0.59364 -0.277756,0.29572 -0.572425,0.57431 -0.862745,0.85741 -0.254216,0.27033 -0.541032,0.50407 -0.827757,0.73808 -0.246419,0.2184 -0.515751,0.40662 -0.78596,0.59365 -0.269369,0.20837 -0.580978,0.34736 -0.884026,0.4979 -0.327332,0.15454 -0.671615,0.2671 -1.007911,0.39906 -0.377332,0.13386 -0.755883,0.26493 -1.143204,0.36712 -0.411155,0.0984 -0.834222,0.13591 -1.253424,0.18397 -0.440559,0.0503 -0.882841,0.0809 -1.325653,0.10199 -0.433534,0.0253 -0.868413,0.0146 -1.302827,10e-4 -0.492448,-0.009 -0.984987,-0.0282 -1.476915,-0.0509 -0.445597,-0.0201 -0.891094,-0.0323 -1.337045,-0.0403 -0.377877,-0.0238 -0.753385,-0.0712 -1.131049,-0.0981 -0.296595,-0.0267 -0.593718,-0.0245 -0.890855,-0.0131 -0.259564,0.0117 -0.519364,0.0198 -0.77912,0.0249 -0.220437,0.0179 -0.432149,0.0954 -0.644576,0.15356 -0.286275,0.0888 -0.581102,0.15029 -0.864258,0.24854 -0.07901,0.022 -0.153723,0.0528 -0.229546,0.0813 -0.155156,0.14748 -0.293597,0.31123 -0.440879,0.46747 -0.09624,0.12754 -0.128264,0.29557 -0.218134,0.42796 -0.07502,0.15548 -0.156807,0.30768 -0.253891,0.45075 -0.15161,0.21249 -0.318553,0.41082 -0.545009,0.54803 -0.15644,0.0903 -0.293741,0.21067 -0.452264,0.29795 -0.173859,0.0943 -0.353353,0.17718 -0.53968,0.24401 -0.233655,0.0663 -0.470916,0.0987 -0.713766,0.0684 -0.284923,-0.0223 -0.571938,-0.0528 -0.826996,-0.19384 -0.04823,-0.034 -0.10074,-0.0631 -0.14517,-0.10177 -0.193655,-0.16969 -0.305781,-0.39592 -0.372451,-0.64078 -0.06118,-0.20658 -0.110331,-0.41673 -0.181654,-0.62027 -0.05752,-0.1849 -0.131044,-0.36308 -0.212064,-0.53891 -0.09265,-0.20192 -0.177371,-0.40595 -0.256927,-0.61341 -0.01684,-0.0436 -0.02928,-0.0888 -0.04486,-0.13299 -0.188716,-0.13518 -0.351121,-0.38857 -0.418066,-0.76772 -0.05017,-0.28404 -0.07015,-0.57297 -0.08812,-0.86046 -0.01317,-0.199 -0.0087,-0.39841 0.0059,-0.59744 -0.0014,-0.004 -0.0044,-0.009 -0.0059,-0.0131 -0.132837,-0.40699 -0.08575,-0.82875 -0.01757,-1.24204 0.05559,-0.32458 0.184618,-0.62268 0.329897,-0.91366 0.0059,-0.0559 0.01464,-0.11194 0.02525,-0.16723 0.015,-0.0762 0.03623,-0.15037 0.05471,-0.22575 0.02598,-0.0844 0.05456,-0.16768 0.08592,-0.25009 0.003,-0.1668 0.0014,-0.3337 0.01501,-0.50015 0.0434,-0.279 0.06723,-0.55996 0.08515,-0.84146 0.02452,-0.35152 0.07074,-0.70069 0.127678,-1.0482 0.06455,-0.42876 0.171298,-0.84945 0.282764,-1.26789 0.09825,-0.38445 0.204488,-0.76697 0.307867,-1.15007 0.07883,-0.3053 0.163576,-0.60529 0.307098,-0.88705 0.14784,-0.28774 0.390189,-0.4889 0.652175,-0.66739 0.246278,-0.16441 0.492832,-0.32741 0.750997,-0.4728 0.269955,-0.13664 0.553066,-0.2492 0.840704,-0.3428 0.309037,-0.12267 0.626964,-0.22199 0.943303,-0.32383 0.379083,-0.10828 0.750408,-0.23878 1.122701,-0.3679 0.422105,-0.13576 0.826214,-0.31624 1.216938,-0.52448 0.405564,-0.22831 0.788944,-0.495797 1.174386,-0.757077 0.234386,-0.154097 0.452481,-0.329897 0.659021,-0.519167 0.182383,-0.196167 0.383443,-0.371897 0.585276,-0.547277 0.18688,-0.155927 0.387244,-0.293267 0.592127,-0.424137 0.176681,-0.10464 0.348857,-0.214737 0.535143,-0.301747 0.0947,-0.0198 0.187801,-0.0532 0.284294,-0.06 0.02199,-0.001 0.04342,-0.001 0.06453,-0.001 z m -31.17856,0.450747 c 0.0059,0.0176 0.01028,0.0351 0.01501,0.0525 0.03513,0.1159 0.07915,0.22854 0.127678,0.339007 -0.04369,-0.131947 -0.09621,-0.260657 -0.142828,-0.391467 z m 31.357952,0.804217 c -0.02486,0.006 -0.04851,0.0165 -0.07149,0.0282 0.02343,-0.008 0.04707,-0.0165 0.07149,-0.0282 z m -37.58866,1.474611 v 7.6e-4 c 0.003,2.3e-4 0.0044,5.4e-4 0.0073,7.8e-4 -0.003,-4.7e-4 -0.0044,-0.001 -0.0073,-0.001 z m 0.0073,0.001 c 0.03183,0.006 0.0628,0.0172 0.09504,0.0226 -0.003,-0.004 -0.0044,-0.009 -0.0073,-0.0117 h -7.5e-4 c -0.02891,-0.004 -0.05782,-0.008 -0.08665,-0.01 z m 5.471344,0.63317 c 6.63e-4,0.003 0.0014,0.006 0.0014,0.009 0.003,-2e-5 0.0044,2e-5 0.0073,0 -0.003,-0.003 -0.0059,-0.006 -0.0087,-0.009 z m -4.745429,0.82168 v 7.8e-4 c 0.0831,0.0183 0.163685,0.0461 0.249316,0.0555 0.03403,0.004 0.06854,0.004 0.102684,0.009 -0.117248,-0.0216 -0.234569,-0.0433 -0.351926,-0.0647 z m 47.652581,5.10346 c 0.05591,0.10055 0.04718,0.0563 0,0 z m 60.163472,83.35557 c -2.7e-4,0.003 0.003,0.022 0.004,0.0256 0.0117,0.0293 0.0212,0.0592 0.0333,0.0882 -0.009,-0.0396 -0.0204,-0.0783 -0.0366,-0.11563 z m -68.836381,5.26686 c 0.32401,-0.011 0.70227,0.075 1.131049,0.23933 0.827639,0.31763 4.00226,0.87313 7.054625,1.23446 9.55828,1.13171 12.69146,2.46075 11.940701,5.06845 -4.457041,15.47905 -4.569273,19.46263 -1.017034,36.00917 1.648125,7.67808 2.118012,19.06108 1.327927,32.1675 -0.157314,2.6103 0.100994,5.57666 0.573898,6.59179 1.035996,2.22416 -4.395162,2.67394 -7.660492,0.63469 -1.515026,-0.94614 -2.698174,-0.83087 -5.421151,0.52751 -3.708615,1.84793 -16.869251,2.47102 -16.869251,0.79584 0,-1.12062 2.589108,-2.22181 5.223525,-2.22181 9.643646,0 16.571542,-22.93585 11.866915,-39.2845 -9.390733,-32.61765 -11.282623,-41.66084 -8.150712,-41.76254 z m 110.434711,73.48536 c 0.0405,0.0728 0.0538,0.1021 0.11179,0.0981 -0.0351,-0.0366 -0.0719,-0.0677 -0.11179,-0.0981 z m 4.84652,6.63508 c 4e-5,5.5e-4 0,10e-4 0,0.003 2e-4,-6.2e-4 6.2e-4,-0.001 7.5e-4,-0.003 z m 0,0.003 c -4.5e-4,10e-4 -10e-4,0.003 -10e-4,0.008 7.5e-4,2.8e-4 8e-4,5e-4 0.003,7.6e-4 -2.4e-4,-0.003 -5.2e-4,-0.003 -7.5e-4,-0.008 z" /></g></svg>
