<?xml version="1.0" encoding="utf-8"?>
<!-- Generator: Adobe Illustrator 19.1.1, SVG Export Plug-In . SVG Version: 6.00 Build 0)  -->
<svg version="1.1" id="Vrstva_1" xmlns="http://www.w3.org/2000/svg" xmlns:xlink="http://www.w3.org/1999/xlink" x="0px" y="0px"
	 viewBox="0 0 357.6 79.4" style="enable-background:new 0 0 357.6 79.4;" xml:space="preserve">
<style type="text/css">
	.st0{fill-rule:evenodd;clip-rule:evenodd;fill:#D32210;}
	.st1{fill-rule:evenodd;clip-rule:evenodd;fill:#4A4A49;}
	.st2{display:none;}
	.st3{display:inline;fill:#FFFFFF;stroke:#FFFFFF;stroke-width:1.7008;}
	.st4{fill-rule:evenodd;clip-rule:evenodd;fill:#FFFFFF;}
	.st5{fill:#FFFEFF;}
	.st6{fill:#FFFFFF;}
</style>
<g>
	<rect class="st0" width="213.5" height="79.4"/>
	<rect x="213.5" y="0" class="st1" width="144.1" height="79.4"/>
	<g class="st2">
		<path class="st3" d="M21.9,39.1c0-2,0.3-3.9,0.9-5.6c0.6-1.7,1.4-3.1,2.5-4.3c1.1-1.2,2.3-2.1,3.8-2.8c1.5-0.7,3.1-1,4.9-1
			c1.8,0,3.4,0.3,4.9,0.9c1.5,0.6,2.7,1.5,3.8,2.6c1,1.1,1.9,2.5,2.4,4.1c0.6,1.6,0.9,3.5,0.9,5.6c0,2-0.3,3.9-0.9,5.6
			c-0.6,1.7-1.4,3.1-2.5,4.3c-1.1,1.2-2.3,2.1-3.8,2.8c-1.5,0.7-3.1,1-4.9,1c-1.8,0-3.4-0.3-4.9-0.9c-1.5-0.6-2.7-1.5-3.8-2.6
			c-1-1.1-1.9-2.5-2.4-4.1C22.2,43,21.9,41.2,21.9,39.1z M25.7,38.9c0,1.9,0.2,3.7,0.6,5.3c0.4,1.6,1,2.9,1.8,4
			c0.8,1.1,1.6,1.9,2.7,2.5c1,0.6,2.1,0.9,3.3,0.9c1.2,0,2.3-0.3,3.3-0.9c1-0.6,1.8-1.5,2.6-2.6c0.7-1.1,1.2-2.5,1.6-4
			c0.4-1.6,0.6-3.3,0.6-5.2c0-1.9-0.2-3.7-0.6-5.3c-0.4-1.6-1-2.9-1.8-4C38.9,28.4,38,27.6,37,27c-1-0.6-2.1-0.9-3.3-0.9
			c-1.2,0-2.4,0.3-3.3,0.9c-1,0.6-1.8,1.5-2.6,2.6c-0.7,1.1-1.2,2.5-1.6,4C25.9,35.3,25.7,37,25.7,38.9z"/>
		<path class="st3" d="M52.7,48.7c0,1.1,0.2,1.8,0.6,2.2c0.4,0.4,1.2,0.6,2.2,0.6v0.7c-0.4,0-1.1,0-1.9,0c-0.9,0-1.7,0-2.6,0
			c-0.9,0-1.8,0-2.6,0c-0.9,0-1.5,0-1.9,0v-0.7c1.1,0,1.8-0.2,2.2-0.6c0.4-0.4,0.6-1.1,0.6-2.2v-22c0-1.2-0.2-2-0.6-2.6
			c-0.4-0.6-1.2-0.8-2.3-0.8v-0.8c0.8,0.1,1.6,0.1,2.3,0.1c0.7,0,1.4,0,2.1-0.1c0.7-0.1,1.3-0.2,1.8-0.4V48.7z"/>
		<path class="st3" d="M56.2,42.5c0-1.7,0.2-3.2,0.7-4.4c0.4-1.2,1.1-2.2,1.8-3c0.8-0.8,1.7-1.4,2.7-1.7c1-0.4,2.2-0.6,3.4-0.6
			c1.2,0,2.3,0.2,3.4,0.6c1,0.4,1.9,1,2.7,1.7c0.8,0.8,1.4,1.8,1.8,3c0.4,1.2,0.7,2.7,0.7,4.4c0,1.7-0.2,3.2-0.7,4.4
			c-0.4,1.2-1.1,2.2-1.8,3c-0.8,0.8-1.7,1.4-2.7,1.7c-1,0.4-2.2,0.6-3.4,0.6c-1.2,0-2.3-0.2-3.4-0.6c-1-0.4-1.9-0.9-2.7-1.7
			c-0.8-0.8-1.4-1.8-1.8-3C56.4,45.7,56.2,44.2,56.2,42.5z M59.8,42.5c0,1.6,0.1,3,0.4,4.1c0.2,1.1,0.6,2.1,1,2.8
			c0.4,0.7,1,1.3,1.6,1.6c0.6,0.3,1.3,0.5,2,0.5c0.7,0,1.4-0.2,2-0.5c0.6-0.3,1.1-0.9,1.6-1.6c0.4-0.7,0.8-1.7,1-2.8
			c0.2-1.1,0.4-2.5,0.4-4.1c0-1.6-0.1-3-0.4-4.1c-0.2-1.1-0.6-2.1-1-2.8c-0.4-0.7-1-1.3-1.6-1.6c-0.6-0.3-1.3-0.5-2-0.5
			c-0.7,0-1.4,0.2-2,0.5c-0.6,0.3-1.1,0.9-1.6,1.6c-0.4,0.7-0.8,1.7-1,2.8C60,39.5,59.8,40.9,59.8,42.5z"/>
		<path class="st3" d="M86.7,32.7c1.7,0,3,0.5,3.9,1.5c0.6,0.7,1,1.7,1.1,3.1c0.3-0.9,0.7-1.6,1.2-2.2c0.5-0.6,1-1.1,1.5-1.4
			c0.6-0.3,1.1-0.6,1.7-0.7c0.6-0.2,1.2-0.2,1.8-0.2c1.7,0,3,0.5,3.9,1.4c0.5,0.5,0.8,1.1,1,1.9c0.2,0.8,0.3,1.8,0.3,2.9v9.9
			c0,1,0.2,1.7,0.6,2.1c0.4,0.4,1.2,0.6,2.2,0.6v0.7c-0.4,0-1.1,0-2,0c-0.9,0-1.7,0-2.6,0c-0.8,0-1.6,0-2.4,0c-0.8,0-1.4,0-1.8,0
			v-0.7c0.9,0,1.5-0.2,1.9-0.6c0.4-0.4,0.6-1.1,0.6-2.1V38.2c0-0.6,0-1.1-0.1-1.6c-0.1-0.5-0.2-1-0.4-1.3c-0.2-0.4-0.5-0.7-0.9-0.9
			c-0.4-0.2-0.9-0.4-1.6-0.4c-0.7,0-1.4,0.2-2,0.5c-0.6,0.3-1.2,0.8-1.6,1.4c-0.5,0.6-0.8,1.3-1.1,2.1c-0.3,0.8-0.4,1.7-0.4,2.6v8.2
			c0,1,0.2,1.7,0.6,2.1c0.4,0.4,1.2,0.6,2.2,0.6v0.7c-0.4,0-1.1,0-2,0c-0.9,0-1.7,0-2.6,0c-0.8,0-1.6,0-2.4,0c-0.8,0-1.4,0-1.8,0
			v-0.7c0.9,0,1.5-0.2,1.9-0.6c0.4-0.4,0.6-1.1,0.6-2.1V38.2c0-0.6,0-1.1-0.1-1.6c-0.1-0.5-0.2-1-0.4-1.3c-0.2-0.4-0.5-0.7-0.9-0.9
			c-0.4-0.2-0.9-0.4-1.6-0.4c-0.7,0-1.4,0.2-2,0.5c-0.6,0.3-1.2,0.8-1.6,1.4c-0.5,0.6-0.8,1.3-1.1,2.1c-0.3,0.8-0.4,1.7-0.4,2.6v8.2
			c0,1,0.2,1.7,0.6,2.1c0.4,0.4,1,0.6,1.9,0.6v0.7c-0.4,0-1,0-1.8,0c-0.8,0-1.6,0-2.4,0c-0.8,0-1.7,0-2.6,0c-0.9,0-1.5,0-2,0v-0.7
			c1.1,0,1.8-0.2,2.2-0.6c0.4-0.4,0.6-1.1,0.6-2.1V37.2c0-1.1-0.2-1.9-0.6-2.5c-0.4-0.5-1.2-0.8-2.3-0.8v-1.2c0.8,0,1.6,0,2.3,0
			c0.7,0,1.4,0,2.1,0c0.7,0,1.3,0,1.8,0v4.6c0.7-1.7,1.5-2.9,2.7-3.6C84.3,33.1,85.5,32.7,86.7,32.7z"/>
		<path class="st3" d="M106.6,42.5c0-1.7,0.2-3.2,0.7-4.4c0.4-1.2,1.1-2.2,1.8-3c0.8-0.8,1.7-1.4,2.7-1.7c1-0.4,2.2-0.6,3.4-0.6
			c1.2,0,2.3,0.2,3.4,0.6c1,0.4,1.9,1,2.7,1.7c0.8,0.8,1.4,1.8,1.8,3c0.4,1.2,0.7,2.7,0.7,4.4c0,1.7-0.2,3.2-0.7,4.4
			c-0.4,1.2-1.1,2.2-1.8,3c-0.8,0.8-1.7,1.4-2.7,1.7c-1,0.4-2.2,0.6-3.4,0.6c-1.2,0-2.3-0.2-3.4-0.6c-1-0.4-1.9-0.9-2.7-1.7
			c-0.8-0.8-1.4-1.8-1.8-3C106.8,45.7,106.6,44.2,106.6,42.5z M110.3,42.5c0,1.6,0.1,3,0.4,4.1c0.2,1.1,0.6,2.1,1,2.8
			c0.4,0.7,1,1.3,1.5,1.6c0.6,0.3,1.3,0.5,2,0.5c0.7,0,1.4-0.2,2-0.5c0.6-0.3,1.1-0.9,1.6-1.6c0.4-0.7,0.8-1.7,1-2.8
			c0.2-1.1,0.4-2.5,0.4-4.1c0-1.6-0.1-3-0.4-4.1c-0.2-1.1-0.6-2.1-1-2.8c-0.4-0.7-1-1.3-1.6-1.6c-0.6-0.3-1.3-0.5-2-0.5
			c-0.7,0-1.4,0.2-2,0.5c-0.6,0.3-1.1,0.9-1.5,1.6c-0.4,0.7-0.8,1.7-1,2.8C110.4,39.5,110.3,40.9,110.3,42.5z"/>
		<path class="st3" d="M138.4,48.3c-0.7,1.5-1.6,2.5-2.7,3.1c-1.1,0.6-2.3,0.9-3.5,0.9c-1.7,0-3-0.5-3.9-1.4c-0.5-0.5-0.8-1.1-1-1.9
			c-0.2-0.8-0.3-1.8-0.3-2.9v-9.3c0-1.1-0.2-1.9-0.6-2.5c-0.4-0.5-1.2-0.8-2.3-0.8v-0.8c0.8,0.1,1.6,0.1,2.3,0.1
			c0.7,0,1.4,0,2.1-0.1c0.7-0.1,1.3-0.2,1.8-0.4v15c0,0.6,0,1.1,0.1,1.7c0,0.5,0.2,1,0.3,1.4c0.2,0.4,0.5,0.7,0.9,1
			c0.4,0.2,0.9,0.3,1.6,0.3c0.7,0,1.4-0.2,2-0.5c0.6-0.4,1.2-0.8,1.6-1.5c0.5-0.6,0.8-1.4,1.1-2.2c0.3-0.8,0.4-1.7,0.4-2.7v-7.9
			c0-1.1-0.2-2-0.6-2.5c-0.4-0.5-1.2-0.8-2.3-0.8v-0.8c0.8,0.1,1.6,0.1,2.3,0.1c0.7,0,1.4,0,2.1-0.1c0.7-0.1,1.3-0.2,1.8-0.4v16
			c0,1.1,0.2,2,0.6,2.5c0.4,0.5,1.2,0.8,2.3,0.8v0.6c-0.8,0-1.6,0-2.3,0c-0.7,0-1.4,0-2.1,0c-0.7,0-1.3,0-1.8,0V48.3z"/>
		<path class="st3" d="M154.2,50.6c1,0,2-0.3,3-0.8c1-0.5,1.8-1.5,2.5-2.8l0.7,0.2c-0.2,0.6-0.5,1.2-0.9,1.8
			c-0.4,0.6-0.8,1.1-1.4,1.6c-0.6,0.5-1.2,0.9-2,1.2c-0.8,0.3-1.7,0.5-2.7,0.5c-1.2,0-2.3-0.2-3.3-0.6c-1-0.4-1.9-1.1-2.7-1.9
			c-0.8-0.8-1.3-1.8-1.8-3c-0.4-1.2-0.6-2.5-0.6-4c0-1.5,0.2-2.8,0.6-4c0.4-1.2,1-2.3,1.8-3.2c0.8-0.9,1.7-1.6,2.8-2.1
			c1.1-0.5,2.3-0.7,3.6-0.7c0.8,0,1.6,0.1,2.3,0.3c0.8,0.2,1.4,0.5,2,0.9c0.6,0.3,1,0.7,1.3,1.2c0.3,0.5,0.5,1,0.5,1.6
			c0,0.6-0.2,1.1-0.6,1.5c-0.4,0.3-0.9,0.5-1.4,0.5c-0.6,0-1.1-0.2-1.5-0.5c-0.4-0.3-0.6-0.8-0.6-1.4c0-0.5,0.1-0.9,0.4-1.2
			c0.3-0.3,0.7-0.5,1.2-0.6c-0.3-0.4-0.7-0.8-1.3-1.1c-0.6-0.3-1.3-0.4-2.1-0.4c-0.6,0-1.3,0.1-1.9,0.4c-0.6,0.3-1.2,0.8-1.7,1.4
			c-0.5,0.7-0.9,1.6-1.3,2.7c-0.3,1.1-0.5,2.6-0.5,4.3c0,1.5,0.1,2.9,0.4,3.9c0.3,1.1,0.7,1.9,1.2,2.6c0.5,0.7,1.1,1.1,1.7,1.4
			C152.8,50.5,153.5,50.6,154.2,50.6z"/>
		<path class="st3" d="M167,41.6c0.7-0.1,1.2-0.3,1.7-0.6c0.4-0.3,0.9-0.7,1.3-1.1l4.1-4.3c0.7-0.7,0.8-1.2,0.5-1.6
			c-0.3-0.4-1.1-0.5-2.3-0.5v-0.8c0.7,0.1,1.3,0.1,2,0.1c0.7,0,1.3,0,1.9,0c1.2,0,2.2,0,2.9-0.1v0.8c-0.6,0.1-1.2,0.2-1.7,0.4
			c-0.5,0.2-1.1,0.7-1.7,1.4l-5,5.4l7.3,8.9c0.5,0.6,0.9,1,1.2,1.4c0.4,0.3,0.8,0.5,1.4,0.6v0.8c-0.3-0.1-0.7-0.1-1.3-0.1
			c-0.6,0-1.2,0-1.8,0c-0.8,0-1.6,0-2.4,0c-0.8,0-1.4,0-1.8,0v-0.7c0.5,0,0.9-0.1,1.1-0.4c0.2-0.3,0.2-0.6-0.1-0.9l-5.1-6.4
			c-0.4-0.5-0.8-0.8-1.1-1.1c-0.3-0.3-0.7-0.4-1-0.5v6.5c0,1.1,0.2,1.8,0.6,2.2c0.4,0.4,1,0.6,1.9,0.6v0.7c-0.4,0-1,0-1.8,0
			c-0.8,0-1.6,0-2.4,0c-0.9,0-1.8,0-2.6,0c-0.9,0-1.5,0-1.9,0v-0.7c1.1,0,1.8-0.2,2.2-0.6c0.4-0.4,0.6-1.1,0.6-2.2v-22
			c0-1.2-0.2-2-0.6-2.6c-0.4-0.6-1.2-0.8-2.3-0.8v-0.8c0.8,0.1,1.6,0.1,2.3,0.1c0.7,0,1.4,0,2.1-0.1c0.7-0.1,1.3-0.2,1.8-0.4V41.6z"
			/>
		<path class="st3" d="M185.4,58.3c0.7,0,1.3-0.2,1.8-0.7c0.5-0.5,1-1.2,1.4-2.3l1.3-3.4l-6.8-16.5c-0.3-0.5-0.5-0.9-0.7-1.1
			c-0.2-0.3-0.5-0.5-0.7-0.6c-0.2-0.1-0.4-0.2-0.6-0.3c-0.2,0-0.4-0.1-0.5-0.1v-0.8c1.1,0.1,2.3,0.1,3.7,0.1c0.8,0,1.6,0,2.5,0
			c0.9,0,1.7,0,2.4,0v0.7c-0.5,0-0.9,0-1.3,0c-0.4,0-0.7,0-1,0.1c-0.3,0.1-0.5,0.2-0.6,0.4c-0.1,0.2-0.1,0.5,0.1,0.8l5.3,13.1l5-13
			c0.2-0.4,0.2-0.7,0.1-0.9c-0.1-0.2-0.3-0.3-0.5-0.4c-0.3-0.1-0.6-0.2-0.9-0.2c-0.4,0-0.8,0-1.2,0v-0.8c0.5,0.1,1.1,0.1,1.7,0.1
			c0.6,0,1.1,0,1.5,0c0.9,0,1.7,0,2.2-0.1v0.8c-0.1,0-0.3,0-0.5,0c-0.2,0-0.4,0.1-0.5,0.2c-0.2,0.1-0.4,0.4-0.6,0.6
			c-0.2,0.3-0.4,0.7-0.6,1.2l-6.4,16.7l-1.3,3.3c-0.5,1.2-1,2.1-1.6,2.6c-0.4,0.4-0.9,0.6-1.5,0.8c-0.5,0.1-1,0.2-1.5,0.2
			c-0.7,0-1.3-0.2-1.8-0.6c-0.5-0.4-0.7-1-0.7-1.7c0-0.6,0.2-1.1,0.5-1.5c0.4-0.4,0.8-0.5,1.5-0.5c0.5,0,1,0.2,1.4,0.5
			c0.4,0.3,0.6,0.7,0.6,1.3c0,0.4-0.1,0.8-0.3,1.1c-0.2,0.3-0.4,0.5-0.7,0.6C185.2,58.3,185.3,58.3,185.4,58.3z M188.8,29.1
			c0.6-0.9,1.1-1.7,1.5-2.5c0.4-0.7,0.7-1.4,1-2c0.3-0.6,0.6-1.1,0.8-1.5c0.3-0.4,0.5-0.9,0.8-1.2c0.4-0.5,0.8-0.8,1.2-0.8
			c0.4,0,0.8,0,1.1,0.3c0.3,0.3,0.5,0.6,0.5,1c0,0.4-0.1,0.9-0.5,1.4c-0.3,0.4-0.6,0.7-1,1.1c-0.4,0.3-0.8,0.7-1.3,1.2
			c-0.5,0.4-1,0.9-1.6,1.5c-0.6,0.6-1.3,1.2-2,2L188.8,29.1z"/>
	</g>
	<g class="st2">
		<path class="st3" d="M276.8,36.8c0-1.1-0.2-2-0.6-2.5c-0.4-0.5-1.2-0.8-2.3-0.8v-0.7c0.8,0,1.6,0,2.3,0c0.7,0,1.4,0,2.1,0
			c0.7,0,1.3,0,1.8,0v3.6c0.6-1.2,1.4-2.1,2.4-2.7c1-0.6,2.2-0.9,3.5-0.9c1,0,1.9,0.2,2.8,0.6c0.9,0.4,1.6,0.9,2.2,1.7
			c0.6,0.8,1.1,1.7,1.5,2.8c0.4,1.1,0.5,2.5,0.5,4c0,1.3-0.2,2.5-0.5,3.8c-0.3,1.2-0.8,2.4-1.5,3.3c-0.7,1-1.6,1.8-2.8,2.4
			c-1.1,0.6-2.5,0.9-4.2,0.9c-0.9,0-1.7-0.1-2.4-0.4c-0.7-0.2-1.3-0.6-1.8-1v4.5c0,1.2,0.3,2,1,2.3c0.6,0.4,1.5,0.6,2.7,0.6v0.7
			c-0.6,0-1.3,0-2.3,0c-1,0-2,0-3.1,0c-0.8,0-1.6,0-2.3,0c-0.8,0-1.3,0-1.7,0v-0.7c0.9,0,1.5-0.2,1.9-0.5c0.4-0.3,0.6-1,0.6-1.9
			V36.8z M284.1,51.4c1.1,0,2-0.2,2.7-0.7c0.7-0.5,1.3-1.1,1.7-2c0.4-0.8,0.7-1.9,0.9-3c0.2-1.2,0.3-2.5,0.3-3.9
			c0-2.7-0.4-4.7-1.1-6c-0.8-1.3-1.9-2-3.4-2c-1,0-2,0.4-2.9,1.1c-0.9,0.7-1.6,1.8-2,3.2v11.9c0.5,0.5,1.1,0.9,1.8,1.1
			C282.7,51.3,283.4,51.4,284.1,51.4z"/>
		<path class="st3" d="M300.2,48.7c0,1.1,0.2,1.8,0.6,2.2c0.4,0.4,1.2,0.6,2.2,0.6v0.7c-0.4,0-1.1,0-1.9,0c-0.9,0-1.7,0-2.6,0
			c-0.9,0-1.8,0-2.6,0c-0.9,0-1.5,0-1.9,0v-0.7c1.1,0,1.8-0.2,2.2-0.6c0.4-0.4,0.6-1.1,0.6-2.2v-22c0-1.2-0.2-2-0.6-2.6
			c-0.4-0.6-1.2-0.8-2.3-0.8v-0.8c0.8,0.1,1.6,0.1,2.3,0.1c0.7,0,1.4,0,2.1-0.1c0.7-0.1,1.3-0.2,1.8-0.4V48.7z"/>
		<path class="st3" d="M312.3,52.3c-1.4,0-2.6-0.2-3.7-0.7c-1.1-0.5-2-1.1-2.7-1.9c-0.7-0.8-1.3-1.8-1.7-3c-0.4-1.2-0.6-2.4-0.6-3.8
			c0-1.6,0.2-3,0.6-4.3c0.4-1.3,1-2.3,1.7-3.2c0.7-0.9,1.6-1.6,2.7-2c1.1-0.5,2.2-0.7,3.5-0.7c2.2,0,4,0.6,5.2,1.8
			c1.2,1.2,1.9,3,1.9,5.6h-11.8c-0.1,0.4-0.1,0.7-0.1,1.2c0,0.4,0,0.8,0,1.3c0,1.3,0.2,2.4,0.5,3.5c0.3,1,0.8,1.9,1.3,2.6
			c0.5,0.7,1.2,1.2,1.9,1.6c0.7,0.4,1.4,0.5,2.1,0.5c1.1,0,2.2-0.3,3.1-0.8c1-0.6,1.8-1.5,2.4-2.9l0.8,0.3c-0.2,0.6-0.5,1.2-0.9,1.9
			c-0.4,0.6-0.9,1.1-1.5,1.6c-0.6,0.5-1.3,0.9-2.1,1.2C314,52.1,313.2,52.3,312.3,52.3z M311.9,33.4c-1.1,0-2.1,0.5-3,1.4
			c-0.9,1-1.4,2.4-1.6,4.5h8.2c0-0.8,0-1.6-0.2-2.3c-0.1-0.7-0.3-1.3-0.6-1.9c-0.3-0.5-0.7-1-1.2-1.3
			C313.1,33.6,312.6,33.4,311.9,33.4z"/>
		<path class="st3" d="M324.7,52c-0.6-0.3-1.1-0.6-1.6-1c-0.3-0.2-0.5-0.2-0.7,0c-0.2,0.2-0.4,0.6-0.5,1.3h-0.9
			c0.1-0.8,0.1-1.8,0.1-2.9c0-1.2,0-2.7,0-4.6h0.9c0.1,1,0.3,2,0.5,2.8c0.2,0.8,0.5,1.6,0.9,2.2c0.4,0.6,0.9,1.1,1.5,1.4
			c0.6,0.3,1.4,0.5,2.4,0.5c0.4,0,0.8-0.1,1.2-0.2c0.4-0.1,0.8-0.3,1.1-0.6c0.3-0.3,0.6-0.6,0.8-1c0.2-0.4,0.3-1,0.3-1.6
			c0-0.5-0.1-1-0.3-1.4c-0.2-0.4-0.5-0.8-0.9-1.2c-0.4-0.4-0.8-0.7-1.4-1.1c-0.5-0.3-1.1-0.7-1.7-1.1c-0.7-0.4-1.3-0.8-2-1.2
			c-0.6-0.4-1.2-0.8-1.7-1.3c-0.5-0.5-0.9-1-1.2-1.5c-0.3-0.6-0.4-1.2-0.4-2c0-0.8,0.2-1.5,0.5-2.1c0.3-0.6,0.7-1.1,1.2-1.5
			c0.5-0.4,1.1-0.7,1.8-0.8c0.7-0.2,1.4-0.3,2.1-0.3c1,0,1.9,0.2,2.6,0.5c0.7,0.3,1.2,0.6,1.6,0.9c0.8,0.7,1.3,0.2,1.5-1.4h0.9
			c-0.1,0.7-0.1,1.6-0.1,2.5c0,1,0,2.3,0,3.9h-0.9c-0.1-0.7-0.3-1.4-0.5-2.1c-0.2-0.7-0.5-1.3-0.9-1.8c-0.4-0.5-0.9-1-1.5-1.3
			c-0.6-0.3-1.3-0.5-2.2-0.5c-0.9,0-1.6,0.2-2.2,0.7c-0.6,0.5-0.9,1.2-0.9,2.1c0,0.6,0.1,1,0.4,1.4c0.3,0.4,0.6,0.8,1.1,1.1
			c0.4,0.4,1,0.7,1.5,1.1c0.6,0.3,1.2,0.7,1.9,1.1c0.7,0.4,1.4,0.9,2,1.3c0.6,0.4,1.2,0.9,1.7,1.4c0.5,0.5,0.8,1,1.1,1.6
			c0.3,0.6,0.4,1.2,0.4,2c0,0.8-0.2,1.6-0.5,2.2c-0.4,0.6-0.8,1.1-1.4,1.6c-0.6,0.4-1.3,0.7-2.1,1c-0.8,0.2-1.6,0.3-2.5,0.3
			C326.6,52.3,325.6,52.2,324.7,52z"/>
	</g>
	<g>
		<path class="st4" d="M254.6,13.1c-0.3-0.4-0.5-1-0.4-1.8c-1.2,0-1,1.5-0.4,2c0,0.3-0.6,0.1-0.8,0.1c0-0.5-0.3-0.7-0.3-1.1
			c-0.5,0.2-1.1,0.3-1.9,0.3c0.6-0.8,1.7-1,2.6-1.5c-0.2-0.5,0.4-0.8,0.4-1.1c0-0.9-1-1.3-1.5-1.9c-1.1,0.2-1.5,1.2-2.9,1.1
			c-0.2,0.7-0.9,0.9-1.4,1.2c0,1,1,1,0.8,2.2c-0.3,0-0.5,0-0.8,0c0.1,0.8,0.7,1.2,1.1,1.8c-1,0.4-1.1-1.3-1.9-1.6
			c0.3-0.6-0.4-1.1-0.4-1.6c-0.1-0.8,0.2-1.4,0.4-2.3c0.4,0.4,0.8,0.4,1.4,0.1c-0.1-0.3-0.5-0.4-1-0.4c0.7-1.2,2.1-2,3.7-1.6
			c0.3,0.1,2.6,2,2.9,2.6C254.7,10.5,254.6,11.8,254.6,13.1z"/>
		<path class="st4" d="M242.2,17.4c0.4,0.4-0.4,0.8-0.4,1.2c-0.5,0.1-0.2-0.6-0.3-1C241.9,17.6,242.2,17.6,242.2,17.4z"/>
		<path class="st4" d="M242.7,18c0.2,0,0.3,0.2,0.5,0.1c0,0.2,0,0.5,0,0.7c-0.4-0.1-0.5,0.1-0.4,0.4c-0.5,0.1-0.6-0.2-0.8-0.3
			C242.4,18.9,242.4,18.3,242.7,18z"/>
		<path class="st4" d="M243.3,20.8c0.5,0.1,0.6,0.6,0.5,1.2c-0.7,0.1-0.9-0.2-1.2-0.4C242.7,21.1,243.4,21.3,243.3,20.8z"/>
		<path class="st4" d="M246.5,23.1c0.4,0.4,0.8,0.8,1,1.5C246.8,24.3,246.3,24,246.5,23.1z"/>
		<path class="st4" d="M279.1,25c-0.2,0.9-0.2,0.8,0,1.6c-1.3-0.1-1.3,1.2-2.2,1.5c-1.1-0.3-1.8-0.6-2.9-0.4
			c-0.5,0.1-0.9,0.6-1.4,0.7c-1.1,0.1-2-0.6-3.3-0.5c2.2-0.4,5.8,0.6,5.9-2c0.9-1,2.7,0.5,3-0.8C278.6,25,278.9,25,279.1,25z"/>
		<path class="st4" d="M248.8,45.7c0.7-0.1-0.2,0.8,0.4,1.2c-0.7,1.6-1.5,3.3-2.6,4.8c-0.9,1.2-1.6,1.5-3,2.5
			c-0.6,0.4-1.1,1-1.6,1.2c-0.4,0.2-1,0.1-1.4,0.3c-1.1,0.4-2.3,1.5-3.7,2.2c-1.3,0.7-2.9,1.1-4.1,1.8c-1.3,0.7-2.6,1.3-3.8,2
			c-1.3,0.7-2.8,1.3-3.8,2c-1.8,1.2-2.6,3.2-4.2,4.6c-0.5-0.9,0.4-1.5,0.5-2.3c1.1-0.3,1.3-1.4,2-2c0.2-0.2,0.8-0.4,1.1-0.7
			c1.4-1.1,3.9-2.7,5.9-3.5c0.7-0.3,1.6-0.4,2.3-0.7c0.9-0.4,1.8-1,2.7-1.4c1.8-0.8,3.6-1.8,5.4-2.7c0.9-0.4,2-0.8,2.7-1.2
			c1.6-1,2.1-3.1,3.7-3.9C247.8,48.3,248.3,47,248.8,45.7z"/>
		<path class="st4" d="M249.9,51.5c0,0.9-0.7,1.5-1.2,2c-3.6,4.2-10,6.2-14.6,9.5c-0.5,0.7-0.6,1.6-1.8,1.6c0.8-2,2.8-3.2,5-4.2
			c2.2-1,3.1-2.6,5.7-3c1.3-1.3,3.2-2.2,4.5-3.8c0.3-0.4,0.5-0.7,0.8-1.1c0.4-0.4,0.8-0.6,1.1-1.2C249.7,51.3,249.7,51.5,249.9,51.5
			z"/>
		<path class="st4" d="M254.1,51.8c0.2,2.8,0.4,5.4-0.5,7.3c-0.2,0.4-0.7,0.8-1,1.2c-0.3,0.7-0.3,1.5-0.5,2c-0.9,1.8-3,3.3-3.9,5.2
			c-0.8,0.1-1,0.7-1.9,0.7c2.4-1.8,4.8-4.4,6-7.8c0.3-0.9,0.6-2,1-3c0.3-1,0.9-2,1-2.9C254.1,53.7,253.4,52.7,254.1,51.8z"/>
		<path class="st4" d="M248.9,57.5c0,0.3,0,0.5,0,0.8c-0.8-0.2-0.7,0.7-1.4,0.7c-0.2-0.2-0.3-0.6-0.3-1.1c0.5-0.2,0.3,0.4,0.7,0.3
			C248.2,57.9,248.2,57.3,248.9,57.5z"/>
		<path class="st4" d="M244.6,59.8c0.2,0.1,0.4,0.3,0.5,0.5c0.1,0.5-0.6,0.4-0.4,1c-0.7,0.1-1.4,0-1.2-0.8
			C244.5,60.6,244.2,60.3,244.6,59.8z"/>
		<path class="st4" d="M254.1,71.4c0.4,0.2,0.1,1-0.1,1.1C253.5,72.2,254.1,71.7,254.1,71.4z"/>
		<path class="st4" d="M252.3,17.4c0.5,0.5,0.7,1.3,1,2c0.3-0.7,0.7-1.1,1-1.8c0.6-0.1,0.4,0.5,1,0.4c0.3,0,0.1-0.5,0.1-0.7
			c0.4,0.5,0.6,1.2,0.5,2.2c-0.5-0.4-0.9-1-1.5-1.2c-0.2,0.9-0.4,1.7-0.8,2.4c0.2,0.9,0.8,1.4,0.7,2.6c0.6,0.4,1.4,0.8,2.5,0.8
			c0.3-0.2,0.3-0.7,0.5-1c0.1-0.5-0.5-0.3-0.4-0.8c0.3-3-0.6-5-1.5-6.8c-0.9,0.2-0.8,1.2-1.8,1.4c-1.1,0.2-3.8-1.1-3.9-2.3
			c1,0.3,1.7,0.9,2.3,1.5c0.7,0,1.5,0,2.2,0c0.6-0.4,0.6-1.4,0.5-2.4c0.2,0,0.3,0.2,0.3,0.5c2.2,0,4.4,0.2,5.7-0.7
			c0.6,0.7,1.9,0.9,2.4,1.8c0.1,0.2-0.1,0.5,0,0.7c0.1,0.1,0.4,0.1,0.4,0.1c0.1,0.3-0.1,0.6,0,0.8c0.6,1.1,1.9,1.1,3.1,1.9
			c0.9,0.6,1.2,1.6,2.5,1.9c0.3,0,0.6,0,1,0c1.4,1.8,3.6,2.8,5.3,4.2c-1.2,0.3-2,1.7-3,1.9c-1,0.2-2.4-0.2-3.5-0.3
			c-0.5-0.1-0.9,0.1-1.6,0c-0.8-0.1-1.7-0.4-2.7-0.7c-0.9-0.2-1.8-0.4-2.7-0.5c-2.2-0.3-4.5-0.3-6-0.7c-0.9-0.2-2-0.7-2.9-1.1
			c-1-0.4-2-1.1-2.7-1.2c-1.2-0.2-2.1,0.6-2.9,0c0-0.4,0-0.7,0-1.1c-1-2.6-3.7-3.7-5.3-5.7c0-0.2,0.2-0.1,0.4-0.1
			c-0.4-0.5-1.2-0.6-2-0.7c-0.4,0.4,0.2,0.4,0.1,0.8c-1.9,0.8-1.9,4.6,0.7,4.8c-0.8,1.9,2.1,2.7,3.8,1.9c0.6-0.4,0.4-1.6,0.4-2.6
			c0.9,0.6,0.8,2.1,1.2,3.3c-0.4-0.4-0.2-1.3-1-1.4c-0.1,0.8-0.7,1.1-1.1,1.6c-2.3,0.1-3.1-1.3-4.8-1.8c-0.2-0.8-0.5-1.5-1-2
			c0.2,1.1,1.2,2.9,0.5,4.5c-0.6,0.2-1.1,0.5-2,0.4c0,0.2,0,0.4,0,0.5c0.3,0.3,1.3-0.1,1.5,0.4c0.5-0.1,0.7-0.7,1.4-0.7
			c0.5,0.2-0.7,0.9-1,1.2c-1.1,0.1-1.6-0.5-2.3-0.8c0.2-1.2-1.1-2.8,0.8-2.7c0,0.5,0,0.8-0.3,1c0,0.6,0.7,0.6,1.4,0.5
			c1-1.4,0-3.7-1.1-4.4c0.2-0.8-0.3-1-0.4-1.5c0.6-1.6,1.8-2.7,3-3.7c3-0.3,3.7,1.6,4.9,3c0.8-0.7,1.3,0.4,2,0.4
			c1,0,1.3-1.2,2.3-1.5c1.2,1.1,2.6,2,3.3,3.7C252.9,19.3,252.6,17.9,252.3,17.4z"/>
		<path class="st4" d="M250.7,29.2c-0.5,0-0.7-0.3-0.7-0.8c-1.6-0.8-3.1-1.7-4.8-2.4c0.9,1.6,2.1,2.9,2.7,4.9
			c-1.1-1.5-2.5-4.4-4.2-5.6c-0.2-0.1-1-0.4-1.5-0.3c-1.3,0.3-2.3,3.2-2.9,4.6c-1,2.4-1.8,4.9-3.7,6.7c-0.7,0.7-1.1,0.6-1.5,1.1
			c-0.3,0.4-0.3,0.9-0.5,1.4c-1,1.7-2.9,3.5-3.9,5.2c1.9-1,3.6-2.8,5.4-4.2c3.3-2.6,4.4-7.7,7.8-10.5c1.1,1,2.6,1.5,3.5,2.6
			c0.7,0,1.5,0,2.2,0c0.6,0,0.2-0.9,1-0.7c-0.2,0.5-0.2,1.1-0.5,1.5c-1.4-0.1-2,1-2.5,2.3c0.4,0.7,0.8,1.4,1.5,1.8
			c-0.6,0-1.3-0.3-1.8-0.7c-0.6-0.5-0.8-1.7-1.8-1.8c0.1-1.1-0.7-2.1,0-3c-0.2-0.8-1.1-0.8-1.6-1.2c-1.6,1.7-3.3,3.2-3.5,6.1
			c-1,0.5-1.2,1.6-1.9,2.3c-0.4,0.4-1.1,0.5-1.5,1c-0.4,0.4-0.6,1.1-1,1.5c-0.7,0.7-1.6,1.1-2.4,1.6c-0.7,0.5-1.8,1-2,1.5
			c-0.8,1.7-2.3,2.6-3.9,3.5c-0.2-1.1,1.3-1.1,1.2-1.6c-0.1-0.6-0.9-0.5-1.4-0.7c-0.3-0.1-0.4-0.3-0.7-0.3c-0.8,0-1.2,0.6-1.9,0.7
			c1.1-2.3,4-1.4,4.9-1.9c0.5-0.3,1.2-1.5,1.8-2c0.7-0.7,1-1.6,1.6-2.4c0.4-0.5,1-0.7,1.4-1.2c0.2-0.2,0.1-0.6,0.3-0.8
			c0.2-0.3,0.6-0.7,1-1.1c0.6-0.8,1.7-1.6,2.3-2.4c1.4-2,1.7-5,2.9-6.9c0-0.4-0.9,0.2-0.7-0.4c0.2-0.5,1.2-0.2,1.5-0.5
			c0.5-0.5,0.4-1.7,0.4-2.7c0.5,0.7,0.7,1.1,0.8,1.6c3.4-0.4,6.1,2.1,8.3,3.7c-0.2-1.9-0.6-3.6-1.4-4.9c0.2-0.2,0.6,0.7,1.1,0.7
			C249.9,26.1,251.3,27.3,250.7,29.2z"/>
		<path class="st4" d="M250.7,23.9c0.9,0,1.4,0.6,2,1c0,0.3,0,0.5,0,0.8c0.9,1.2,3.2,0.6,5.3,0.8c2.4,0.3,4.6,1.3,6.9,1.1
			c-0.1,0.3-0.7,0.1-1,0.1c-2.4,0.2-4.1-0.4-6.1-0.7c-0.4,0.8,0.1,2.6-0.3,3.4c-0.7,0.2-0.7-0.3-1.1-0.4c0.5,1.1,1.1,1.8,1.6,2.9
			c0.6,1.1,1.8,1.8,2.3,3.3c0.5,1.4,0.8,3.4,1,5.3c0.2,1.8,0.4,3.8,0.5,5.6c0.1,0.9-0.1,1.9,0,2.9c0,0.4,0.1,1.2,0.3,1.6
			c0.3,0.9,1.4,2,2,3c0.6,0.8,1,1.9,1.6,2.9c0.7,1.1,1.4,2.3,2.2,3.5c0.4,0.6,0.9,1.1,1.2,1.6c0.5,0.8,0.6,1.7,1,2.4
			c0.5,0.9,1.4,1.6,1.5,2.7c0.2,0.3,0.5,0.6,0.8,0.8c-0.4,1.2,1.2,1.2,0.7,2c-0.7,0.1-0.3-0.8-0.8-0.8c-0.1-0.4-0.5-0.5-0.7-0.8
			c0-0.3,0-0.6,0-1c-0.4-0.4-0.5-0.9-1.1-1.1c-1.2-2.4-2.5-4.7-3.8-6.9c-0.3-0.5-0.8-0.9-1.1-1.4c-0.9-1.4-1.4-3-2.3-4.4
			c-0.4-0.5-1-0.8-1.4-1.4c-0.3-0.5-0.5-1.1-0.8-1.6c-0.3-0.5-0.6-1-1-1.5c-0.7-1-1.2-1.9-1.9-2.9c-0.9-1.2-2-2.2-2.9-3.4
			c-0.5-0.6-0.9-1.2-1.4-1.8c-0.4-0.6-1-1.1-1.2-1.8c0.4-0.1,0.5,0.1,0.7,0.3c1.1-1.7,1.2-5.7,0.5-8.3c-0.4-1.6-2-2.4-1.9-4.5
			c0-0.5,0.4-0.8,0.4-1.2c0-0.4-0.3-1.1-0.5-1.4C251.8,24.4,250.7,24.4,250.7,23.9z"/>
		<path class="st4" d="M251.4,32.9c-0.7,0.2-1.1,0.7-2.2,0.5c0-0.3,0-0.5,0-0.8c0.7,0.7,2,0.4,2.3-0.4c0.3,0.1,0.5,0.3,0.8,0.4
			c-0.3,0.5-0.8,0.9-1.4,1.2C250.7,33.6,251.3,33.2,251.4,32.9z"/>
		<path class="st4" d="M247.3,34.2c0.6,0.3,0.7,1.1,1.2,1.5c0.5,0,0.9,0,1.4,0c0.7-0.7,1.1-1.8,2.4-1.9c-0.9,1.3-1.7,2.7-4.2,2.3
			C248.4,34.9,246.9,35.5,247.3,34.2z"/>
		<path class="st4" d="M249.7,36.7c-0.2,0.7-0.8,1.2-1.2,2c-0.4,0.7-1,1.7-1.1,2.3c-0.2,2.3,2,3.7,3.4,4.9c0.8,0.7,1.7,1.3,2.6,1.5
			c0.3,1.1,1.3,1.3,2,2c0.5,0.5,0.8,1.3,1.2,1.9c1,1.3,2.2,2.4,3,3.8c0,0.6,0,1.3,0,1.9c-0.7-0.2-0.8-0.8-0.8-1.6
			c-0.1-0.6-0.7-0.7-1-1.2c-0.1-0.3,0-0.7-0.1-1c-0.2-0.3-0.5-0.7-0.8-1.1c-0.6-0.8-1-1.5-2-1.9c0-0.5-0.5-0.6-0.5-1.1
			c-1.7-1-3.7-2.5-5.2-3.9c-0.8-0.8-2.2-1.8-2.3-2.7c-0.2-0.9,0.3-2.1,0.7-2.9C248.1,38.6,249.2,37.6,249.7,36.7z"/>
		<path class="st4" d="M256.5,61.7c0.7,0.5,0.2,1.5,0,2.2c-0.2,0.7-0.5,1.5-0.7,2.3c-0.5,1.8-0.8,3.9-1.5,5c0.3-0.6,0.5-2.3,0.8-3.8
			c0.2-1,0.8-1.9,1-2.7C256.3,63.6,255.8,62.6,256.5,61.7z"/>
	</g>
</g>
<g>
	<path class="st5" d="M22.3,28.1h10.7c0.8,0,1.2,0.3,1.2,0.9c0,0.2,0,0.4-0.1,0.7l-0.6,1.9h-0.3c-0.8,0-1.3,0.1-1.6,0.4
		c-0.3,0.3-0.5,0.8-0.5,1.5v11.7c0,1.4,0.3,2.5,0.8,3.1s1.4,0.9,2.7,0.9c1.2,0,2.2-0.3,2.8-0.9c0.4-0.3,0.6-0.7,0.8-1.2
		c0.1-0.5,0.2-1.2,0.2-2.1V33.6c0-0.7-0.2-1.3-0.5-1.6c-0.3-0.3-0.8-0.5-1.5-0.5h-0.3c-0.6,0-0.9-0.3-0.9-0.8c0-0.2,0-0.5,0.1-0.8
		l0.6-1.9h9.4c0.8,0,1.2,0.3,1.2,0.9c0,0.2,0,0.5-0.1,0.7l-0.6,1.9h-0.4c-1.4,0-2.1,0.6-2.1,1.9v12.6c0,5.3-3.2,8-9.5,8
		c-6.1,0-9.2-2.8-9.2-8.4v-12c0-0.7-0.2-1.3-0.5-1.6c-0.3-0.3-0.8-0.5-1.5-0.5h-0.3c-0.6,0-0.9-0.3-0.9-0.8c0-0.2,0-0.5,0.1-0.8
		L22.3,28.1z"/>
	<path class="st5" d="M55.8,35.9v1.4c1.6-1.1,3.4-1.7,5.4-1.7c1.6,0,2.8,0.4,3.7,1.1c0.9,0.7,1.3,1.8,1.3,3.1v8.9
		c0,1,0.5,1.6,1.4,1.6h0.4c0.6,0,0.8,0.2,0.8,0.7c0,0.1,0,0.2-0.1,0.4L68,53.4h-8.8c-0.6,0-0.9-0.3-0.9-0.8c0-0.1,0-0.2,0.1-0.4
		l0.6-1.9h0.2c0.7,0,1-0.6,1-1.8v-6c0-0.8-0.1-1.4-0.4-1.7c-0.3-0.3-0.8-0.5-1.5-0.5c-1.7,0-2.5,1-2.5,3v5.5c0,0.5,0.1,0.9,0.2,1.1
		c0.2,0.2,0.5,0.4,1,0.4c0.4,0.1,0.7,0.3,0.7,0.7c0,0.1,0,0.3-0.1,0.4L57,53.4h-9c-0.6,0-0.9-0.3-0.9-0.8c0-0.1,0-0.2,0.1-0.3
		l0.6-1.9h1.1c0.7,0,1-0.6,1-1.8V41c0-0.9-0.4-1.4-1.3-1.4h-0.5c-0.6,0-0.9-0.2-0.9-0.7c0-0.1,0-0.3,0.1-0.6l0.5-1.9L55.8,35.9z"/>
	<path class="st5" d="M77.8,35.9v12.9c0,1,0.5,1.6,1.4,1.6h0.4c0.6,0,0.8,0.2,0.8,0.7c0,0.1,0,0.3-0.1,0.4l-0.6,1.9H70
		c-0.6,0-0.9-0.3-0.9-0.8c0-0.1,0-0.2,0.1-0.3l0.6-1.9h1.1c0.7,0,1.1-0.6,1.1-1.8V41c0-0.9-0.4-1.4-1.3-1.4h-0.5
		c-0.6,0-0.9-0.2-0.9-0.7c0-0.2,0-0.4,0.1-0.6l0.5-1.8L77.8,35.9z M71.7,28.4l4.6-0.3h0.2c0.9,0,1.4,0.4,1.4,1.3V34l-4.3,0.4
		c-0.3,0-0.5,0-0.5,0c-0.9,0-1.3-0.5-1.3-1.6V28.4z"/>
	<path class="st5" d="M95.5,41.7h-2.1c-0.5,0-0.9-0.2-1-0.7c-0.2-0.8-0.7-1.2-1.6-1.2c-1,0-1.8,0.4-2.4,1.3c-0.7,0.8-1,1.9-1,3.2
		c0,1.4,0.4,2.6,1.3,3.5s2,1.3,3.5,1.3c1.7,0,3.6-0.5,5.5-1.4l-1.3,3.8c-0.3,0.8-0.6,1.3-1,1.6c-1,0.7-2.6,1.1-4.8,1.1
		c-2.8,0-5.1-0.8-6.8-2.4c-1.7-1.6-2.6-3.7-2.6-6.4c0-2.8,0.9-5,2.8-6.8c1.8-1.8,4.2-2.6,7.1-2.6c1.7,0,3.6,0.3,5.7,1l0.5,0.1
		L95.5,41.7z M96.3,29.9c-0.3,0.1-0.8,0.4-1.5,0.9l-1.3,0.9c-0.6,0.4-1.1,1-1.6,1.7h-3.3c-0.4-0.6-0.9-1.1-1.3-1.4l-1.3-0.9
		c-0.7-0.5-1.3-0.9-1.7-1l1.8-1.9c0.3,0,0.4,0.1,0.5,0.1l0.9,0.4l1.2,0.5c0.5,0.2,1,0.6,1.6,1.1c0.6-0.6,1.3-1,1.8-1.2l1.1-0.4
		l0.9-0.4c0.1,0,0.3-0.1,0.5-0.1L96.3,29.9z"/>
	<path class="st5" d="M108.1,35.8c2.7,0,5,0.9,6.7,2.6c1.8,1.7,2.6,3.9,2.6,6.6c0,2.6-0.9,4.8-2.6,6.5c-1.8,1.7-4,2.5-6.8,2.5
		c-3,0-5.3-0.9-7-2.7c-1.7-1.8-2.5-3.9-2.5-6.4c0-2.7,0.9-4.8,2.7-6.6C103,36.6,105.3,35.8,108.1,35.8z M108,39
		c-1.9,0-2.8,2-2.8,5.9c0,1.7,0.2,3.1,0.7,4.1s1.2,1.5,2,1.5c1.8,0,2.8-1.9,2.8-5.7C110.8,40.9,109.9,39,108,39z"/>
	<path class="st5" d="M128.2,47l1.8-5.5c0.2-0.5,0.3-0.9,0.3-1.1c0-0.7-0.4-1-1.3-1h-0.6c-0.7,0-1-0.2-1-0.7c0-0.1,0-0.3,0.1-0.4
		l0.6-1.9h7.8c0.7,0,1,0.2,1,0.7c0,0.1,0,0.2-0.1,0.4l-0.6,1.9c-0.6,0.1-1,0.2-1.2,0.5c-0.2,0.3-0.5,0.8-0.8,1.6l-2.3,6.7
		c-0.9,2.5-1.3,4.3-1.4,5.2h-4.7c-0.7,0-1.1-0.1-1.4-0.3c-0.3-0.2-0.5-0.7-0.8-1.4l-1.7-5.1c-0.9-2.7-1.6-4.4-2.1-5.3
		c-0.5-0.9-1.1-1.4-1.8-1.6c-0.6-0.2-0.8-0.4-0.8-0.8c0-0.1,0-0.3,0.1-0.5l0.6-1.9h5.8c0.5,0,0.9,0.1,1.1,0.3
		c0.2,0.2,0.4,0.7,0.5,1.4C126,40.6,126.9,43.5,128.2,47z"/>
	<path class="st5" d="M137.9,48.3h2.6c0.4,0,0.7,0,0.8,0.1c0.2,0.1,0.3,0.3,0.4,0.6c0.3,0.8,1.1,1.2,2.2,1.2c1.4,0,2-0.5,2-1.4
		c0-0.3-0.2-0.6-0.5-0.8c-0.3-0.2-1.1-0.5-2.3-0.9c-2.1-0.7-3.6-1.5-4.4-2.3c-0.8-0.8-1.2-1.8-1.2-3.2c0-1.7,0.6-3.1,1.9-4.2
		c1.3-1,3-1.6,5.2-1.6c1.8,0,3.8,0.4,6.1,1.1l-1.3,4h-2.2c-0.4,0-0.7-0.2-0.9-0.5c-0.3-0.8-0.9-1.1-1.8-1.1c-1,0-1.5,0.3-1.5,1
		c0,0.3,0.2,0.6,0.5,0.7c0.3,0.2,1.1,0.5,2.4,0.9c2.1,0.7,3.5,1.4,4.3,2.1c0.7,0.8,1.1,1.9,1.1,3.4c0,2-0.7,3.6-2.1,4.7
		c-1.4,1.1-3.4,1.7-5.9,1.7c-1.8,0-3.4-0.2-4.7-0.6s-2-0.8-2-1.3c0-0.1,0.1-0.4,0.2-0.8L137.9,48.3z"/>
	<path class="st5" d="M161.8,27.8v21c0,1,0.5,1.6,1.4,1.6h0.4c0.6,0,0.8,0.2,0.8,0.7c0,0.1,0,0.3-0.1,0.4l-0.6,1.9H154
		c-0.6,0-0.9-0.3-0.9-0.8c0-0.1,0-0.2,0.1-0.3l0.6-1.9h1c0.7,0,1.1-0.6,1.1-1.8V32.7c0-0.9-0.4-1.4-1.3-1.4h-0.5
		c-0.6,0-0.9-0.2-0.9-0.7c0-0.2,0-0.4,0.1-0.6l0.5-1.7L161.8,27.8z M164.7,36.4h6.4c1.1,0,1.7,0.4,1.7,1.2c0,1-1.5,3-4.6,5.8l1.9,3
		c1.3,2.1,2.6,3.4,3.9,3.9c0.6,0.2,1,0.5,1,0.8c0,0.2,0,0.4-0.1,0.6l-0.6,1.7h-6c-0.6,0-1-0.1-1.3-0.3c-0.3-0.2-0.5-0.6-0.8-1.2
		c-1.1-2.4-2.5-5-4.1-7.6c1.1-0.9,2.1-1.7,2.8-2.5c0.8-0.8,1.1-1.4,1.1-1.7c0-0.4-0.3-0.6-0.9-0.6c-0.7,0-1.1-0.2-1.1-0.7
		c0-0.1,0-0.3,0.1-0.6L164.7,36.4z"/>
	<path class="st5" d="M185.3,45.6l0.9-1.7c0.9-1.8,1.3-2.9,1.3-3.4c0-0.7-0.4-1-1.3-1h-0.5c-0.6,0-0.9-0.2-0.9-0.7
		c0-0.1,0-0.3,0.1-0.5l0.6-1.9h5.6c1.5,0,2.2,0.6,2.2,1.9c0,0.5-0.2,1.2-0.6,2c-0.4,0.9-1.2,2.6-2.5,5.1c-2.9,5.7-4.3,9.2-4.3,10.5
		c0,1,0.4,1.4,1.3,1.4h0.7c0.7,0,1.1,0.2,1.1,0.7c0,0.1,0,0.3-0.1,0.4l-0.6,2h-10.5c-0.5,0-0.8-0.1-1-0.2c-0.2-0.1-0.3-0.3-0.3-0.7
		c0-0.1,0-0.3,0.1-0.4l0.6-1.8c1.3-0.2,2.3-0.8,3-1.6c0.7-0.8,1.1-1.9,1.1-3c0-1.9-1.3-5.2-3.9-9.9c-0.7-1.3-1.2-2.1-1.6-2.5
		c-0.3-0.4-0.7-0.7-1.2-0.8c-0.6-0.2-0.9-0.4-0.9-0.8c0-0.1,0-0.3,0.1-0.5l0.6-1.9h6.2c0.4,0,0.7,0.1,0.9,0.3
		c0.2,0.2,0.4,0.6,0.6,1.1C183.4,41.3,184.4,43.9,185.3,45.6z M182.3,33.8l-1.2-2.4c2.4-1.2,4.4-2.6,6.1-4.1l2.3,3.1
		C187.8,31.9,185.4,33,182.3,33.8z"/>
</g>
<g>
	<path class="st6" d="M283.2,53.1v2.7c0,0.9,0.3,1.4,0.9,1.5h0.5h1.7c0.6,0,0.9,0.2,0.9,0.7c0,0.1,0,0.3-0.1,0.4l-0.6,1.9h-11.2
		c-0.6,0-0.9-0.3-0.9-0.8c0-0.1,0-0.2,0.1-0.4l0.6-1.9h1c0.7,0,1.1-0.6,1.1-1.8V41c0-0.9-0.5-1.4-1.4-1.4h-0.5
		c-0.6,0-0.9-0.2-0.9-0.7c0-0.1,0-0.3,0.1-0.6l0.5-1.9l8.1-0.5V37c1.5-0.9,3.1-1.4,4.6-1.4c2.3,0,4.1,0.8,5.5,2.4
		c1.4,1.6,2.1,3.7,2.1,6.2c0,2.9-0.8,5.2-2.3,6.9c-1.6,1.7-3.6,2.6-6.3,2.6C285.8,53.8,284.6,53.5,283.2,53.1z M283.2,41v6.2
		c0,1.8,0.8,2.7,2.3,2.7c1,0,1.8-0.5,2.4-1.4c0.6-0.9,0.9-2.2,0.9-3.9c0-3.2-1-4.9-3.1-4.9C284.8,39.7,284,40.2,283.2,41z"/>
	<path class="st6" d="M305.1,27.7v21c0,1,0.5,1.6,1.4,1.6h0.4c0.6,0,0.9,0.2,0.9,0.7c0,0.1,0,0.3-0.1,0.4l-0.6,1.9h-9.9
		c-0.6,0-0.9-0.3-0.9-0.8c0-0.1,0-0.2,0.1-0.3l0.6-1.9h1.1c0.7,0,1.1-0.6,1.1-1.8V32.6c0-0.9-0.5-1.4-1.4-1.4h-0.5
		c-0.6,0-0.9-0.2-0.9-0.7c0-0.2,0-0.4,0.1-0.6l0.5-1.7L305.1,27.7z"/>
	<path class="st6" d="M326.4,44.5l-10.7,0.1c-0.8,0-1.2,0.3-1.2,0.9c0,0.9,0.6,1.8,1.7,2.4c1.1,0.7,2.5,1,4.1,1
		c0.9,0,1.9-0.1,3.1-0.4c1.2-0.2,2.1-0.5,2.8-0.9l-1.4,3.7c-0.3,0.9-0.9,1.5-1.8,1.9s-2.2,0.5-4,0.5c-3.2,0-5.7-0.8-7.6-2.5
		c-1.9-1.6-2.8-3.9-2.8-6.7c0-2.5,0.9-4.7,2.7-6.5c1.8-1.8,3.9-2.6,6.5-2.6c1.5,0,3,0.4,4.3,1.1c1.3,0.7,2.3,1.7,3.1,2.9
		c0.7,1.2,1.1,2.7,1.3,4.6L326.4,44.5z M321.2,41.5c-0.5-1.7-1.6-2.5-3.1-2.5c-0.8,0-1.5,0.2-2.1,0.7c-0.6,0.5-1,1.1-1.3,1.8H321.2z
		"/>
	<path class="st6" d="M328.3,48.1h2.6c0.4,0,0.7,0,0.9,0.1c0.2,0.1,0.3,0.3,0.4,0.6c0.3,0.8,1.1,1.2,2.2,1.2c1.4,0,2.1-0.5,2.1-1.4
		c0-0.3-0.2-0.6-0.5-0.8c-0.3-0.2-1.1-0.5-2.4-0.9c-2.2-0.7-3.7-1.5-4.5-2.3c-0.8-0.8-1.2-1.8-1.2-3.2c0-1.7,0.7-3.1,2-4.2
		c1.3-1,3.1-1.6,5.3-1.6c1.9,0,3.9,0.4,6.2,1.1l-1.3,4H338c-0.5,0-0.8-0.2-0.9-0.5c-0.3-0.8-0.9-1.1-1.8-1.1c-1.1,0-1.6,0.3-1.6,1
		c0,0.3,0.2,0.6,0.5,0.7c0.3,0.2,1.2,0.5,2.5,0.9c2.2,0.7,3.6,1.4,4.4,2.1c0.8,0.8,1.1,1.9,1.1,3.4c0,2-0.7,3.6-2.2,4.7
		c-1.5,1.1-3.5,1.7-6.1,1.7c-1.9,0-3.5-0.2-4.8-0.6c-1.3-0.4-2-0.8-2-1.3c0-0.1,0.1-0.4,0.2-0.8L328.3,48.1z"/>
</g>
</svg>
